<?xml version="1.0" encoding="UTF-8"?>
<svg id="Layer_1" xmlns="http://www.w3.org/2000/svg" version="1.1" viewBox="0 0 1200 1200">
  <!-- Generator: Adobe Illustrator 30.1.0, SVG Export Plug-In . SVG Version: 2.1.1 Build 136)  -->
  <defs>
    <style>
      .st0 {
        fill: #414042;
      }

      .st1 {
        fill: #6d6e71;
      }

      .st2 {
        fill: #808285;
      }

      .st3 {
        fill: #a7a9ac;
      }
    </style>
  </defs>
  <g>
    <path class="st3" d="M422.71,526.74v-12.36c0-.37-.3-.66-.66-.66s-.66.3-.66.66v12.36c0,.11.04.22.09.31l-13.99,7.63v202.65h29.12v-202.66l-13.99-7.63c.05-.09.09-.2.09-.31Z"/>
    <path class="st3" d="M1037.82,617.82v7.77h-3.09v-7.83h-5.07v-5.85c0-4.57-5.73-8.27-12.8-8.27s-12.8,3.71-12.8,8.27v5.85h-5.08v7.83h-3.09v-7.77h-1.54v119.52h45.01v-119.52h-1.54Z"/>
    <polygon class="st3" points="319.95 601.81 313.83 601.81 313.83 596.65 291.65 596.65 291.65 601.81 285.53 601.81 285.53 606.98 276.82 606.98 276.82 737.34 328.67 737.34 328.67 606.98 319.95 606.98 319.95 601.81"/>
    <path class="st3" d="M848.16,601.81h-6.12v-5.16h-11.09v-47.93c-29.11,0-34.65,7.53-34.65,7.53h-22.65v181.09h83.22v-130.36h-8.72v-5.16h0Z"/>
    <path class="st3" d="M694.05,529.52h-6.12v-5.16h-.08l-10.39-5.24v-37.02c0-.37-.3-.66-.66-.66s-.66.3-.66.66v37.02l-10.39,5.24v5.16h-6.12v207.82h53.06v-202.66h-18.64v-5.16Z"/>
    <path class="st3" d="M514.21,548.72v188.62h57.3v-181.09h-22.65s-5.53-7.53-34.65-7.53Z"/>
  </g>
  <path class="st3" d="M276.89,511.73l1.55,2.15-1.9.56,4.48,5.34s-.69,1.16-.17,1.64c.52.47,1.12.52,2.11.41.09.45.84,3.88.84,3.88l1.81-.34s.49-.09,1.53-1.18,2.78-2.97,2.78-2.97c0,0,10.7-1.66,12.57-2.05,1.87-.39,8.4-1.87,8.4-1.87l5.53-.54-.58.6-.28,3.08.86-.43-5.98,7.91,1.07.9,2.81-2.16.68.13,2.62-2.23,2.07-.31v.26s3.08-.4,3.52-.86c.1-.21.27-1.79-.37-2.41-.23-.02-.9.13-.9.13l2.51-2.38,1.7-.24v.28s3.29-.77,3.75-1.03c0-.55-.05-2.15-.47-2.55-.27,0-1.08-.02-1.08-.02l2.39-2.5-.47-.81s4.95-2.3,5.32-2.63,15.77-4.54,17.57-9.45c0-.58.14-.87-2.91-1.37-1.08-.1-3.06-.39-3.64-.5s-2.02-.56-5.68.84c-.41.11-12.18,3.42-15.48,5.1-.1-.29-.32-1.08-.32-1.08,0,0-5.4,1-5.79,1s-6.98-2.02-7.08-2.15.15-2.41-1.14-2.15-3.98.9-4.78.75c-.43-.24-.76-.62-.76-.62l-11.23-3.96-.02.26-1.45-.43-1.56-.05s-2.45-1.07-4.56-.47c.3.33.49.94,5.98,3.82s7.84,4.15,7.84,4.15l-1.1.86,2.28,1.27-.2.32,1.03.04,3.3,1.75-.14.44.89-.19.54.29,1.55-.8.99.75.8-.04-2.24,1.59.52.62-14.38,4.83s-.1.36-1.58-.23c-1.48-.58-10.91-3.94-10.91-3.94,0,0-.74-.45-1.81-.07-1.07.39-3.16,1.04-3.16,1.04Z"/>
  <polygon class="st2" points="682.97 563.75 660.62 563.75 660.62 579.49 654.74 579.49 654.74 737.34 688.84 737.34 688.84 579.49 682.97 579.49 682.97 563.75"/>
  <polygon class="st2" points="563.51 536.76 540.11 536.76 540.11 554.76 531.23 554.76 531.23 737.34 570.23 737.34 570.23 554.76 563.51 554.76 563.51 536.76"/>
  <polygon class="st2" points="437.3 584.64 413.89 584.64 413.89 598.62 405.01 598.62 405.01 737.34 444.01 737.34 444.01 598.62 437.3 598.62 437.3 584.64"/>
  <polygon class="st2" points="927.4 554.59 905.05 554.59 905.05 571.09 899.17 571.09 899.17 737.34 933.28 737.34 933.28 571.09 927.4 571.09 927.4 554.59"/>
  <rect class="st2" x="199.1" y="596.04" width="34.67" height="141.3"/>
  <rect class="st2" x="244.03" y="627.64" width="34.67" height="109.7"/>
  <rect class="st2" x="233.03" y="640.86" width="11.6" height="96.48"/>
  <polygon class="st2" points="151.57 628.82 151.57 617.74 125.57 617.74 125.57 628.82 121.24 628.82 121.24 737.34 155.91 737.34 155.91 628.82 151.57 628.82"/>
  <polygon class="st2" points="822.09 639.45 822.09 621.69 791.93 621.69 791.93 639.45 791.93 642.11 791.93 737.34 838.45 737.34 838.45 639.45 822.09 639.45"/>
  <polygon class="st2" points="327.24 618.21 327.24 617.2 321.17 617.2 321.17 604.94 307.31 604.94 307.31 617.2 301.24 617.2 301.24 618.21 296.9 618.21 296.9 737.34 331.58 737.34 331.58 618.21 327.24 618.21"/>
  <polygon points="890.24 600.87 888.5 591.39 884.88 591.39 883.46 582.37 880.48 582.37 879.46 574.25 877.2 574.25 874.26 566.14 872.37 566.14 869.29 542.94 869.25 542.94 866.17 566.14 864.29 566.14 861.34 574.25 859.08 574.25 858.06 582.37 855.09 582.37 853.66 591.39 850.04 591.39 848.3 600.87 843.85 578.94 843.85 601.91 843.85 737.34 894.7 737.34 894.7 601.91 894.7 578.94 890.24 600.87"/>
  <polygon points="283.04 625.43 283.04 617.02 279.57 617.02 279.57 608.61 277.4 608.61 277.4 603.14 270.18 596.58 270.18 608.61 268.01 608.61 268.01 617.02 264.55 617.02 264.55 625.43 261.37 625.43 261.37 737.34 286.21 737.34 286.21 625.43 283.04 625.43"/>
  <polygon points="238.98 693.02 238.98 704.24 234.06 704.24 234.06 693.02 217.88 693.02 217.88 737.34 233.63 737.34 234.06 737.34 238.98 737.34 239.41 737.34 249.66 737.34 249.66 693.02 238.98 693.02"/>
  <polygon points="165.44 693.02 165.44 677.15 106.07 677.15 106.07 693.02 100 693.02 100 737.34 171.51 737.34 171.51 693.02 165.44 693.02"/>
  <rect x="733.91" y="689.73" width="16.61" height="47.6"/>
  <polygon points="648.1 693.6 648.1 662.83 623.54 662.83 623.54 737.34 648.1 737.34 655.18 737.34 655.18 693.6 648.1 693.6"/>
  <polygon points="675.69 655.99 675.69 650.15 672.37 650.15 672.37 644.32 669.91 644.32 669.91 638.49 664.13 638.49 664.13 644.32 661.68 644.32 661.68 650.15 658.35 650.15 658.35 655.99 654.74 655.99 654.74 737.34 679.3 737.34 679.3 655.99 675.69 655.99"/>
  <path class="st2" d="M483.22,588.1c0-.45-.39-.82-.87-.82s-.87.37-.87.82v19.24h-11.07l-5.59,13.13v116.87h18.39v-126.41h0v-22.83h0Z"/>
  <polygon points="554.63 665.57 554.63 694.71 549.86 694.71 549.86 678.7 531.73 678.7 531.73 694.71 531.66 694.71 531.66 706.6 524.22 706.6 524.22 737.34 531.66 737.34 531.73 737.34 570.23 737.34 570.23 696.31 570.23 694.71 570.23 665.57 554.63 665.57"/>
  <polygon points="689.99 665.57 689.99 694.71 685.22 694.71 685.22 679.11 667.09 679.11 667.09 694.71 667.02 694.71 667.02 737.34 705.59 737.34 705.59 696.31 705.59 694.71 705.59 665.57 689.99 665.57"/>
  <polygon points="830.77 688.94 830.77 649.79 824.09 649.79 824.09 641.94 808.6 641.94 808.6 649.79 808.6 650.26 808.6 688.94 803.83 688.94 803.83 737.34 844.21 737.34 844.21 688.94 830.77 688.94"/>
  <polygon class="st2" points="986.2 618.89 986.2 594.4 956.05 594.4 956.05 618.89 956.05 622.1 956.05 737.34 1002.56 737.34 1002.56 618.89 986.2 618.89"/>
  <polygon points="1093.97 702.48 1093.97 694.76 1086.49 694.76 1086.49 691.65 1081.43 691.65 1081.43 686.29 1077.7 686.29 1077.7 691.65 1075.74 691.65 1075.74 694.76 1075.74 702.48 1067.4 702.48 1067.4 737.34 1100 737.34 1100 702.48 1093.97 702.48"/>
  <polygon points="1061.55 622.82 1061.55 619.66 1040.39 619.66 1040.39 622.82 1034.54 622.82 1034.54 737.34 1067.4 737.34 1067.4 622.82 1061.55 622.82"/>
  <polygon points="462.75 680.39 462.75 694.71 451.48 694.71 451.48 671.36 432.85 671.36 432.85 694.71 426.78 694.71 426.78 737.34 481.39 737.34 481.39 694.71 481.39 680.39 462.75 680.39"/>
  <polygon points="512.16 650.38 512.16 635.28 508.83 635.28 508.83 629.3 506.38 629.3 506.38 624.54 499.3 624.54 499.3 629.3 496.84 629.3 496.84 635.28 493.52 635.28 493.52 650.38 481.39 650.38 481.39 737.34 524.29 737.34 524.29 650.38 512.16 650.38"/>
  <polygon points="191.33 556.01 191.33 598.22 182.09 598.22 182.09 613.9 176.13 613.9 176.13 625.72 171.51 625.72 171.51 737.34 217.88 737.34 217.88 628.71 217.88 625.72 217.88 613.9 217.88 598.22 217.88 542.87 191.33 556.01"/>
  <path d="M406.7,625.43v-8.41h-3.47v-8.41h-1.73v-29.1c0-.45-.39-.82-.87-.82s-.87.37-.87.82v18.25l-5.92,5.38v5.46h-2.17v8.41h-3.47v8.41h-3.18v111.91h24.85v-111.91h-3.18Z"/>
  <path d="M795.59,605.94v-63.6h-6.5v-37.75h-6.5v-29.95c0-.45-.39-.82-.87-.82s-.87.37-.87.82v29.95h-7.37v-29.95c0-.45-.39-.82-.87-.82s-.87.37-.87.82v29.95h-6.5v37.75h-6.5v63.6h-8.23v131.4h53.31v-131.4h-8.23Z"/>
  <polygon points="330.57 666.76 330.57 654.38 318.25 647.2 305.93 654.38 305.72 654.38 305.72 666.76 249.66 666.76 249.66 737.34 426.78 737.34 426.78 666.76 330.57 666.76"/>
  <polygon points="1013.16 666.76 1013.16 654.38 1012.94 654.38 1000.63 647.2 988.31 654.38 988.31 666.76 952.05 666.76 952.05 628.84 894.05 628.84 894.05 666.76 892.1 666.76 892.1 737.34 1034.54 737.34 1034.54 666.76 1013.16 666.76"/>
  <polygon points="730.59 577.22 730.59 570.16 727.88 570.16 727.88 565.26 724.84 565.26 724.84 561.39 721.7 561.39 721.7 557.52 719.86 557.52 719.86 553.65 716.67 535.81 713.58 553.65 713.58 557.52 711.73 557.52 711.73 561.39 708.59 561.39 708.59 565.26 705.56 565.26 705.56 570.16 702.85 570.16 702.85 577.22 698.52 577.22 698.52 737.34 734.92 737.34 734.92 577.22 730.59 577.22"/>
  <polygon points="370.29 616.68 370.29 611.22 367.58 611.22 367.58 607.43 364.55 607.43 364.55 604.43 361.41 604.43 361.41 601.44 359.57 601.44 359.57 598.44 356.38 584.64 353.28 598.44 353.28 601.44 351.44 601.44 351.44 604.43 348.3 604.43 348.3 607.43 345.26 607.43 345.26 611.22 342.55 611.22 342.55 616.68 338.22 616.68 338.22 737.34 374.63 737.34 374.63 616.68 370.29 616.68"/>
  <path d="M611.76,504.21h-34.17v-35.8c0-.45-.42-.82-.93-.82s-.93.37-.93.82v35.8h-3.64v-40.73c0-.45-.42-.82-.93-.82s-.93.37-.93.82v44.52h0v229.33h53.31v-220l-11.78-13.13Z"/>
  <path class="st0" d="M935.64,688.55v-11.15h.66c0-12.45-12.33-22.55-27.53-22.55s-27.53,10.1-27.53,22.55h.66v11.15h-6.97v48.79h67.66v-48.79h-6.97Z"/>
  <polygon class="st0" points="362.88 705.95 362.88 686.44 334.66 686.44 334.66 705.95 334.66 706.8 334.66 737.34 378.19 737.34 378.19 705.95 362.88 705.95"/>
  <polygon class="st0" points="608.35 662.93 608.35 691.44 592 691.44 592 674.55 563.77 674.55 563.77 698.61 548.46 698.61 548.46 737.34 592 737.34 638.51 737.34 638.51 692.69 638.51 691.44 638.51 662.93 608.35 662.93"/>
  <path class="st0" d="M318.94,678.66v20.49h-9.58l-12.82-25.29-12.82,25.29v38.2h52.97v-55.01h0s-2.84-3.67-17.76-3.67Z"/>
  <polygon class="st0" points="835.63 668.6 828.75 682.16 828.6 682.16 828.6 690.08 812.12 690.08 812.12 685.33 774.98 685.33 774.98 682.16 769.2 672.13 766.07 672.13 766.07 665.06 752.1 665.06 752.1 672.13 748.97 672.13 743.19 682.16 719.59 682.16 713.82 672.13 710.68 672.13 710.68 665.06 696.72 665.06 696.72 672.13 693.59 672.13 687.81 682.16 687.81 691.79 668.34 691.79 668.34 737.34 687.81 737.34 687.81 737.34 774.96 737.34 774.98 737.34 828.6 737.34 842.66 737.34 842.66 682.16 842.51 682.16 835.63 668.6"/>
  <polygon class="st0" points="254 674.63 249.91 674.63 249.91 671.11 245.82 671.11 245.82 678.15 243.43 678.15 243.43 671.11 239.35 671.11 239.35 674.63 235.26 674.63 235.26 678.15 221.05 678.15 221.05 737.34 268.21 737.34 268.21 678.15 254 678.15 254 674.63"/>
  <polygon class="st0" points="1040.71 668.97 1036.25 668.97 1036.25 665.13 1031.79 665.13 1031.79 672.81 1029.19 672.81 1029.19 665.13 1024.73 665.13 1024.73 668.97 1020.28 668.97 1020.28 672.81 1004.79 672.81 1004.79 737.34 1056.2 737.34 1056.2 672.81 1040.71 672.81 1040.71 668.97"/>
  <polygon class="st0" points="206.68 695.78 193.88 695.78 193.88 693.99 172.29 693.99 172.29 695.78 168.47 695.78 168.47 699.27 164.43 699.27 161.12 699.27 161.12 694.93 155.15 694.93 155.15 690.58 147.71 690.58 147.71 686.95 144.31 686.95 144.31 683.32 120.12 683.32 120.12 686.95 116.72 686.95 116.72 690.58 109.28 690.58 109.28 694.93 103.31 694.93 103.31 699.27 100 699.27 100 737.34 164.43 737.34 223.34 737.34 223.34 699.27 206.68 699.27 206.68 695.78"/>
  <polygon class="st0" points="535.75 703.15 535.75 695.92 531.11 688.39 528.59 688.39 528.59 683.08 517.38 683.08 517.38 688.39 514.86 688.39 510.22 695.92 491.27 695.92 486.63 688.39 484.11 688.39 484.11 683.08 472.89 683.08 472.89 688.39 470.38 688.39 465.74 695.92 465.74 698.3 464.52 698.3 454.54 687.42 444.56 698.3 435.91 698.3 435.91 701.86 422.67 701.86 422.67 695.92 422.55 695.92 417.03 685.73 411.51 695.92 411.39 695.92 411.39 737.34 422.67 737.34 465.74 737.34 465.75 737.34 535.75 737.34 551.38 737.34 551.38 703.15 535.75 703.15"/>
  <g>
    <rect class="st1" x="100" y="719.03" width="1000" height="15.37"/>
    <rect x="100" y="720.08" width="1000" height="17.26"/>
  </g>
</svg>