<?xml version="1.0" encoding="UTF-8"?>
<svg id="Layer_1" xmlns="http://www.w3.org/2000/svg" version="1.1" viewBox="0 0 1200 1200">
  <!-- Generator: Adobe Illustrator 30.1.0, SVG Export Plug-In . SVG Version: 2.1.1 Build 136)  -->
  <defs>
    <style>
      .st0 {
        fill: #414042;
      }

      .st1 {
        fill: #6d6e71;
      }

      .st2 {
        fill: #808285;
      }

      .st3 {
        fill: #a7a9ac;
      }
    </style>
  </defs>
  <polygon class="st3" points="319.04 535.83 319.04 520.98 257.94 520.98 257.94 535.83 257.94 731.54 337.86 731.54 337.86 535.83 319.04 535.83"/>
  <path class="st3" d="M812.41,527.43l-8.84-21.86c-.7-1.73-2.14-2.83-3.72-2.83h-9.32c-1.58,0-3.02,1.1-3.72,2.83l-8.84,21.86v161.97h-11.21v42.14h56.87v-42.14h-11.21v-161.97Z"/>
  <polygon class="st3" points="733.76 597.35 733.76 593.22 732.65 593.22 732.65 584.64 729.79 584.64 729.79 593.22 722.37 593.22 722.37 590.73 718.56 590.73 718.56 593.22 718.67 593.22 718.67 597.35 686.75 597.35 686.75 731.54 762.98 731.54 762.98 597.35 733.76 597.35"/>
  <polygon class="st2" points="224 601.21 224 593.17 233.55 593.17 233.55 584.02 257.68 584.02 257.68 601.21 265.72 601.21 265.72 731.54 216.46 731.54 216.46 601.21 224 601.21"/>
  <path class="st2" d="M825.15,580.97h5.1v-6.37h9.24v-59.09c24.26,0,28.87,9.28,28.87,9.28h18.88v206.74h-69.36v-144.21h7.26v-6.37Z"/>
  <polygon class="st2" points="1010.1 641.32 1010.1 629.92 995.38 629.92 995.38 551.78 957.39 551.78 957.39 647.94 950.02 647.94 950.02 658.4 942.66 658.4 942.66 731.54 950.02 731.54 957.39 731.54 964.75 731.54 995.38 731.54 1008.36 731.54 1010.1 731.54 1029.03 731.54 1029.03 641.32 1010.1 641.32"/>
  <polygon class="st2" points="496.99 572.57 525.02 572.57 525.02 590.29 535.66 590.29 535.66 731.54 488.95 731.54 488.95 590.29 496.99 590.29 496.99 572.57"/>
  <polygon class="st2" points="421.99 612.97 421.99 613.56 409.22 613.56 409.22 596.49 344.04 596.49 344.04 613.56 344.04 731.54 443.77 731.54 443.77 613.56 443.77 600.89 421.99 612.97"/>
  <polygon class="st2" points="653.5 573.3 653.5 556.86 650.32 556.86 650.32 545.15 646.55 545.15 646.55 533.44 635.94 533.44 635.94 523.85 630.33 523.85 630.33 533.44 619.71 533.44 619.71 545.15 615.94 545.15 615.94 556.86 612.77 556.86 612.77 573.3 608.8 573.3 608.8 731.54 657.46 731.54 657.46 573.3 653.5 573.3"/>
  <polygon class="st2" points="794.24 631.42 794.24 623.12 794.24 613 717.67 613 717.67 623.12 710.18 623.12 710.18 613 692.91 613 692.91 623.12 689.97 623.12 689.97 631.42 679.22 631.42 679.22 648.72 669.23 648.72 669.23 731.54 679.22 731.54 790.44 731.54 800.43 731.54 800.43 631.42 794.24 631.42"/>
  <path d="M1100,553.66v177.88h-92.23v-112.76h1.41v-8.45s-.59-2.82,2.11-2.82v-41.77s-.23-2.93,10.21-5.63c10.44-2.7,54.21-9.97,68.06-9.97,5.05,0,9.86.82,10.44,3.52Z"/>
  <polygon points="959.14 508.25 940.95 508.25 940.76 508 940.76 506.43 939.57 506.43 939.06 505.76 939.06 495.93 938 495.93 937.71 495.93 937.71 505.49 910.78 510.16 910.78 506.49 909.45 506.49 909.45 495.93 909.15 495.93 908.1 495.93 908.1 506.43 906.39 506.43 906.39 513.59 903.99 515.99 892.61 517.4 881.7 525.14 881.7 731.54 967.59 731.54 967.59 514.58 959.14 508.25"/>
  <path d="M852.56,595.19h-2.99v-4.05h-15.49s-36.61,18.83-38.9,20.59v119.8h57.38v-136.34Z"/>
  <rect x="635.09" y="613.23" width="46.11" height="118.31"/>
  <polygon points="613.47 540.48 613.47 533.67 610.04 533.67 610.04 528.74 604.96 528.74 604.96 512.73 595.79 501.46 587.11 501.46 582.36 495.83 582.36 488.97 579.41 488.97 579.41 485.8 571.55 485.8 563.68 485.8 563.68 488.97 560.74 488.97 560.74 495.83 555.99 501.46 547.31 501.46 538.14 512.73 538.14 528.74 533.06 528.74 533.06 533.67 529.62 533.67 529.62 540.48 525.14 540.48 525.14 731.54 571.55 731.54 617.95 731.54 617.95 540.48 613.47 540.48"/>
  <polygon points="751.26 654.41 751.26 646.66 724.97 646.66 724.97 654.41 693.76 654.41 693.76 731.54 787.87 731.54 787.87 654.41 751.26 654.41"/>
  <path d="M493.79,693.37v-216.25l-10.88.33v-8.26h-1.32v8.3l-4.84.15v-8.03h-1.32v8.08l-12.14.37v-2.82s-5.2.78-10.34,1.34v-8.11h-1.32v8.25c-1.31.13-2.59.24-3.74.31v-3.55h-1.32v3.61c-.4.01-.77.02-1.11.02-5.4,0-15.49,6.1-15.49,6.1v210.15h-11.97v38.17h87.77v-38.17h-11.97Z"/>
  <polygon points="377.39 560.43 377.39 556.02 377.39 520.78 381.45 520.78 381.45 518.4 377.39 518.4 377.39 483.51 375.01 483.51 375.01 518.4 370.95 518.4 370.95 520.78 375.01 520.78 375.01 556.02 340.6 556.02 340.6 560.43 325.64 560.43 325.64 731.54 387.6 731.54 387.6 560.43 377.39 560.43"/>
  <polygon points="204.72 598.42 204.72 584.36 198.09 535.08 169.59 535.08 169.59 529.45 148.85 525.22 130.43 525.22 130.43 618.47 124.67 653.67 124.67 731.54 202.12 731.54 204.72 731.54 235.53 731.54 235.53 633.49 204.72 598.42"/>
  <polygon points="291.38 620.93 291.38 618.38 284.87 615.83 269.73 615.83 269.73 620.93 257.94 620.93 257.94 731.54 291.38 731.54 303 731.54 303 626.91 291.38 620.93"/>
  <polygon class="st0" points="1007 682.31 1007 676.74 993.46 676.74 993.46 682.31 990.43 682.31 984.82 690.21 963.64 690.21 963.64 701.83 919.54 701.83 919.54 731.54 963.64 731.54 963.64 731.3 1015.63 731.3 1015.63 690.21 1010.03 682.31 1007 682.31"/>
  <polygon class="st0" points="100 731.54 100 690.44 113.12 677.31 116.76 677.31 116.76 689.17 130.04 689.17 130.04 677.31 142.05 677.31 142.05 684.74 159.76 684.74 159.76 670.2 166.08 670.2 166.08 681.58 198.96 681.58 198.96 673.36 226.15 673.36 234.05 681.27 247.02 681.27 247.02 731.54 100 731.54"/>
  <polygon class="st0" points="369.17 681.61 369.17 678.47 359.27 678.47 357.12 678.47 357.12 681.61 346.81 681.61 346.81 678.47 336.9 678.47 334.76 678.47 334.76 681.61 319.94 681.61 319.94 678.47 312.19 678.47 310.5 678.47 310.5 681.61 291.04 681.61 291.04 731.54 412.74 731.54 412.74 681.61 369.17 681.61"/>
  <g>
    <rect class="st1" x="100" y="712.31" width="1000" height="16.99"/>
    <rect x="100" y="714.55" width="1000" height="16.99"/>
  </g>
</svg>