<?xml version="1.0" encoding="UTF-8"?>
<svg id="Layer_1" xmlns="http://www.w3.org/2000/svg" version="1.1" viewBox="0 0 1200 1200">
  <!-- Generator: Adobe Illustrator 30.1.0, SVG Export Plug-In . SVG Version: 2.1.1 Build 136)  -->
  <defs>
    <style>
      .st0 {
        fill: #414042;
      }

      .st1 {
        fill: #6d6e71;
      }

      .st2 {
        fill: #808285;
      }

      .st3 {
        fill: #a7a9ac;
      }
    </style>
  </defs>
  <path class="st3" d="M222.81,578.2v-16.17,17.24-38.28c0-.72-.59-1.31-1.3-1.31s-1.3.59-1.3,1.31v30.1h-11.74v7h-9.45v-16.06h-11.08v16.17h-6.85v150.39h46.29v-150.39h-4.56Z"/>
  <path class="st2" d="M1034.94,709.21v-16.5l25.98-7.01v-10.72l-19.84-12.01c-2.59-1.57-2.08-5.4.81-6.32,8.06-2.58,19.03-8.89,19.03-24.15,0-24.13-30.31-25.98-30.31-25.98,0,0-30.31,1.86-30.31,25.98,0,15.26,10.97,21.57,19.03,24.15,2.89.92,3.4,4.75.81,6.32l-19.84,12.01v10.72l25.98,7.01v16.5l-31.76,11.14v8.25h72.17v-8.25l-31.76-11.14Z"/>
  <path class="st2" d="M592.71,559.85c-6.58,0-11.91,3.02-11.91,6.75l-.09,18.59h-23.2v38.95h-8.59v-3.98h-11.75v-7.97h-10.85v-23.02l-4.07-3.98h-14.01v-6.2h-10.85v-7.08h-13.11l-5.88,5.75v14.61h-3.16v136.33h129.27l.1-162c0-3.73-5.33-6.75-11.91-6.75Z"/>
  <polygon class="st2" points="131.95 634.77 148.27 634.77 148.27 631.47 175.8 631.47 175.8 634.77 180.68 634.77 180.68 641.19 185.84 641.19 190.05 641.19 190.05 633.2 197.67 633.2 197.67 625.22 207.16 625.22 207.16 618.55 211.49 618.55 211.49 611.88 242.34 611.88 242.34 618.55 246.67 618.55 246.67 625.22 256.16 625.22 256.16 633.2 263.77 633.2 263.77 641.19 267.99 641.19 267.99 728.6 185.84 728.6 110.71 728.6 110.71 641.19 131.95 641.19 131.95 634.77"/>
  <polygon class="st3" points="742.45 602.51 742.45 591.78 737.76 591.78 737.76 586.75 732.19 586.75 732.19 559.23 723.2 559.23 723.2 576.28 718.7 576.28 718.7 586.75 712.35 586.75 712.35 591.78 707.66 591.78 707.66 602.51 701.21 602.51 701.21 728.6 748.9 728.6 748.9 602.51 742.45 602.51"/>
  <path class="st3" d="M687.24,565.72v-17.51,18.68-41.46c0-.78-.63-1.42-1.41-1.42s-1.41.64-1.41,1.42v32.6h-12.71v7.58h-10.24v-17.4h-12v17.51h-7.41v162.88h50.13v-162.88h-4.94Z"/>
  <polygon class="st3" points="841.48 631.66 841.48 620.94 827.63 620.94 827.63 523.26 791.91 523.26 791.91 637.89 784.98 637.89 784.98 659.82 778.06 659.82 778.06 728.6 784.98 728.6 791.91 728.6 798.83 728.6 827.63 728.6 839.84 728.6 841.48 728.6 859.28 728.6 859.28 631.66 841.48 631.66"/>
  <polygon class="st3" points="385.82 587.55 371.89 587.55 371.89 581.46 348.4 581.46 348.4 587.55 344.24 587.55 344.24 599.41 339.84 599.41 336.24 599.41 336.24 584.66 329.74 584.66 329.74 569.91 321.64 569.91 321.64 557.58 317.95 557.58 317.95 545.25 291.62 545.25 291.62 557.58 287.92 557.58 287.92 569.91 279.83 569.91 279.83 584.66 273.33 584.66 273.33 599.41 269.73 599.41 269.73 728.6 339.84 728.6 403.95 728.6 403.95 599.41 385.82 599.41 385.82 587.55"/>
  <path class="st3" d="M588.48,507.6l1.4,1.95-1.72.51,4.05,4.82s-.62,1.05-.16,1.48c.47.43,1.01.47,1.91.37.08.41.76,3.5.76,3.5l1.63-.31s.45-.08,1.38-1.07c.93-.99,2.51-2.68,2.51-2.68,0,0,9.67-1.5,11.36-1.85,1.69-.35,7.59-1.69,7.59-1.69l5-.49-.53.55-.25,2.78.78-.39-5.41,7.15.96.82,2.54-1.95.61.12,2.36-2.01,1.87-.28v.23s2.79-.36,3.18-.77c.09-.19.25-1.62-.34-2.17-.2-.02-.82.12-.82.12l2.27-2.15,1.54-.21v.25s2.98-.7,3.39-.93c0-.5-.04-1.94-.42-2.3-.25,0-.98-.02-.98-.02l2.16-2.26-.43-.73s4.47-2.08,4.8-2.37,14.25-4.11,15.88-8.54c0-.52.12-.79-2.63-1.24-.98-.09-2.76-.36-3.29-.45-.53-.1-1.83-.51-5.14.76-.37.1-11.01,3.09-13.99,4.61-.09-.26-.29-.98-.29-.98,0,0-4.88.9-5.23.9s-6.3-1.83-6.4-1.95c-.1-.12.14-2.18-1.03-1.95-1.17.23-3.6.82-4.32.68-.39-.21-.69-.56-.69-.56l-10.15-3.58-.02.23-1.31-.39-1.41-.05s-2.22-.96-4.12-.43c.27.3.45.85,5.41,3.45s7.08,3.75,7.08,3.75l-.99.78,2.06,1.15-.18.29.93.04,2.98,1.58-.13.4.8-.17.48.27,1.4-.72.9.68.72-.04-2.02,1.44.47.56-12.99,4.37s-.09.32-1.43-.2c-1.34-.52-9.86-3.56-9.86-3.56,0,0-.67-.41-1.63-.06-.96.35-2.85.93-2.85.93Z"/>
  <polygon class="st2" points="429.01 580.8 429.01 605.55 416.99 605.55 416.99 565.29 355.7 565.29 355.7 605.55 355.7 728.6 449.48 728.6 449.48 605.55 449.48 569.43 429.01 580.8"/>
  <path class="st2" d="M908.56,635.74c-5.14-21.29-16.52-111.94-16.52-111.94l2.94-4.4-5.14-7.34-5.14,7.34,2.94,4.4s-11.38,90.65-16.52,111.94c-5.14,21.29-6.61,58.72-43.18,92.85h31.81s18.35-16.88,18.35-33.77h23.49c0,16.88,18.35,33.77,18.35,33.77h31.81c-36.58-34.13-38.05-71.57-43.18-92.85ZM889.85,674.28h-11.74s3.67-32.3,3.67-45.51h16.15c0,13.21,3.67,45.51,3.67,45.51h-11.74Z"/>
  <path d="M201.61,632.73s26.81,16.83,124.56,5.12v90.74h-124.56v-95.86Z"/>
  <path class="st2" d="M998.78,592.14s4.92-6.79-42.32-6.79-42.32,6.79-42.32,6.79l-.15,136.46h84.93l-.15-136.46Z"/>
  <polygon points="450.1 728.6 667.63 605.22 885.16 728.6 450.1 728.6"/>
  <path d="M527.58,650.23v-7.91l-23.61-1.52v-8.52c-25.45,2.59-49.1,3.49-60.72,3.8.28-.51.53-1.16.53-1.93,0-1.79-1.09-2.23-1.09-2.23,0,0-.04-.69-.04-1.54s1.74-1.18,1.74-2.6c0-2.23-3.88-3.04-4.29-3.04h-2.59v-.81h1.78v-.57h-.97v-.36s-1.25,0-1.25-.36.57-.53.57-1.05c0-1.1-1.9-1.5-1.9-1.5,0,0-1.9.41-1.9,1.5,0,.53.57.69.57,1.05s-1.25.36-1.25.36v.36h-.97v.57h1.78v.81h-2.59c-.4,0-4.29.81-4.29,3.04,0,1.42,1.74,1.74,1.74,2.6s-.04,1.54-.04,1.54c0,0-1.09.45-1.09,2.23,0,.76.25,1.42.53,1.93-11.62-.31-35.27-1.21-60.72-3.8v8.52l-23.61,1.52v7.91h1.45v5.63h-1.45v7h1.45v65.74h180.78v-65.74h1.46v-7h-1.46v-5.63h1.45Z"/>
  <path d="M1086.21,586.38c.18-15.08,5.94-33.84,6.35-35.06,0-.96-1.84-2.51-1.84-2.51,1.09-.64,8.74-14.52,9.29-15.55-.68-1.03-4.69-3.77-6.33-4.8-.55-1.03-3.46-2.57-4.37-3.43-2.37-3.94-7.83-7.37-7.83-7.37l-1.28-46.26-1.28,46.26s-5.46,3.43-7.83,7.37c-.91.86-3.82,2.4-4.37,3.43-1.64,1.03-5.65,3.77-6.33,4.8.55,1.03,8.19,14.91,9.29,15.55,0,0-1.84,1.54-1.84,2.51.41,1.22,6.17,19.98,6.35,35.06.18,15.08-1.37,66.57-5.19,92.31-3.82,25.74-7.1,49.9-7.1,49.9h36.6s-3.28-24.16-7.1-49.91c-3.82-25.74-5.37-77.23-5.19-92.31ZM1078.49,568.86v157.94l-1.4.21v.06h-9.19s7.71-12.89,8.99-17.69l1.59-140.53c.14-3.21-5.05-19.15-5.05-19.15h5.05v19.15ZM1083.31,727.07v-.06l-1.4-.21v-177.09h5.05s-5.19,15.93-5.05,19.15l1.59,140.53c1.28,4.8,8.99,17.69,8.99,17.69h-9.19Z"/>
  <polygon points="143.7 560.38 143.7 505.32 100 557.35 100 728.6 143.7 728.6 187.4 728.6 187.4 599.58 143.7 560.38"/>
  <path d="M989.63,728.6v-84.59l-6.93-7.05v-33.84s-1.91-17.8-12.03-17.8-11.43,17.45-11.43,17.45v37.27l-8.05,2.38-13.51-10.04-22.85,16.92h-29.61v-23.79h-34.8v-14.8s-3.81-21.68-14.54-21.68-12.81,20.44-12.81,20.44v31.02h-6.23v88.11h172.8Z"/>
  <path class="st0" d="M576.27,605.4v3.77s.91.51,1,2.48c.64,0,1.09,1.89-1,2.06,0,1.28-.36,14.48,2.73,18.25.86-.81,1.14-2.7-2.21-3.15,0,0,1.99-.96,2.77-.9.78.06-2.09-4.88-2.09-4.88l4.64,3.79,1.43-5.65,1.16,5.65,2.53-4.63v5.14l3.96-1.22-3,3.53,3.89.32-3.69,1.99s-.34,3.98-1.71,4.88c-.07,1.09-.14,1.48-.14,1.48,0,0,3.41-.45,3.62,3.47.61,2.57,1.37,4.43,2.53,4.43s2.53-1.03,2.05-2.57.1-1.41.1-1.41l5.23,2.83-.55,1.61v3.08l-3.76,4.3-.41,2.57s-1.57-.13-2.94-.58v22.94l-1.02.96v3.08s1.09,2.18,1.09,4.63h3v4.5l1.84,3.15-1.78,3.6v11.76l1.91,5.78v7.9h1.78v4.24h-36.33v-3.73h1.91v-16.9c0-1.22.89-8.22,1.57-10.09s3.28-7.71,3.28-8.61v-2.64s1.78-1.67,2.18-1.61c.41.06.55.84.96.84s2.59-3.66,2.59-3.66c0,0-.34-14.2-1.09-17.16-.75-2.96-2.87-8.42.14-11.5-.82-.96-2.32-3.73-.89-6.04,0-1.99-2.18-9-2.18-10.73s1.98-10.86,1.91-12.21-1.43-5.59-1.43-5.59v-2.76l.55-1.54-1.02-2.18s-.27-3.02.61-3.6,1.57-.9,1.57-2.38c.85-.8,2.37-1.59,2.68-1.11Z"/>
  <polygon class="st0" points="126.56 728.6 126.56 685.17 140.43 671.31 144.27 671.31 144.27 683.83 158.3 683.83 158.3 671.31 170.99 671.31 170.99 679.15 189.7 679.15 189.7 663.79 196.38 663.79 196.38 675.81 231.12 675.81 231.12 667.13 259.85 667.13 268.2 675.48 281.9 675.48 281.9 728.6 126.56 728.6"/>
  <polygon class="st0" points="795.69 728.6 795.69 689.95 808.03 677.61 811.45 677.61 811.45 688.76 823.94 688.76 823.94 677.61 835.24 677.61 835.24 684.59 851.89 684.59 851.89 670.92 857.83 670.92 857.83 681.62 888.75 681.62 888.75 673.89 914.32 673.89 921.75 681.32 933.94 681.32 933.94 728.6 795.69 728.6"/>
  <path class="st0" d="M408.65,683.61v13.79h7.79l10.42-17.02,10.42,17.02v31.2h-43.04v-42.51h0s2.3-2.47,14.43-2.47Z"/>
  <path class="st0" d="M359.55,697.7v-12.15h-21.59v2.64h-14.15v-3.02h-4.65v-3.02h-.06l-7.88-3.07v-7.74c0-.21-.23-.39-.5-.39s-.5.17-.5.39v7.74l-7.88,3.07v3.02h-4.65v43.42h73.56v-30.89h-11.71Z"/>
  <polygon class="st0" points="590.05 712.6 590.05 691.89 563.28 691.89 563.28 704.12 542.53 704.12 542.53 696.59 526.61 696.59 526.61 704.12 510.57 704.12 510.57 696.5 494.47 696.5 494.47 691.89 473.49 691.89 473.49 704.12 452.33 704.12 452.33 728.6 526.61 728.6 602.83 728.6 602.83 712.6 590.05 712.6"/>
  <path class="st0" d="M628.32,728.6s-.27-11.57,4.37-13.11,7.1-4.37,11.74-4.11,27.59-.77,30.04-3.85,15.29-26.73,15.29-26.73l-4.37-2.31s11.2-20.56,11.47-22.88-.27-4.88,4.1-6.43c4.37-1.54,1.64-4.11,4.37-4.11s.55,1.54,3,2.06c2.46.51,12.56-2.06,23.76,16.45,3.28,4.63,5.37,9.34,5.37,9.34,0,0,2,4.28-1.82,6.68,2,.86,7.47,2.57,9.1,14.22,2.55-.34,6.55-1.37,11.84,3.43s14.38,14.22,16.21,15.93c1.82,1.71,3.28,5.48,1.82,8.74-.91,3.08-2,6.68-2,6.68h-144.3Z"/>
  <polygon class="st0" points="1024.56 681.65 1024.56 678.69 1015.25 678.69 1013.23 678.69 1013.23 681.65 1003.53 681.65 1003.53 678.69 994.22 678.69 992.2 678.69 992.2 681.65 978.27 681.65 978.27 678.69 970.97 678.69 969.39 678.69 969.39 681.65 951.09 681.65 951.09 728.6 1065.53 728.6 1065.53 681.65 1024.56 681.65"/>
  <g>
    <rect class="st1" x="100.15" y="710.06" width="999.85" height="16.38"/>
    <rect x="100.15" y="712.22" width="999.85" height="16.38"/>
  </g>
</svg>