<?xml version="1.0" encoding="UTF-8"?>
<svg id="Layer_1" xmlns="http://www.w3.org/2000/svg" version="1.1" viewBox="0 0 1200 1200">
  <!-- Generator: Adobe Illustrator 30.1.0, SVG Export Plug-In . SVG Version: 2.1.1 Build 136)  -->
  <defs>
    <style>
      .st0 {
        fill: #414042;
      }

      .st1 {
        fill: #6d6e71;
      }

      .st2 {
        fill: #808285;
      }

      .st3 {
        fill: #a7a9ac;
      }
    </style>
  </defs>
  <path class="st3" d="M1099.31,717.67s6.35-49.55-23.15-57.87c-13.11-.58-16.39-.58-19.67-7.89s-9.83-10.75-11.47-13.76-8.19-3.01-18.85,0c-10.65,3.01-4.1,6.45-19.67,0-15.57-6.45-16.39-3.44-23.76-10.11-7.38-6.67-11.47-17.26-18.85-14.97s-16.39,1.42-21.3,4.01c-4.92,2.58-17.21,11.72-20.49,14.46s-26.22-.16-28.68,0c-2.46.16-25.4-3.6-33.6,0-8.19,3.6-22.53,16.51-26.22,20.38-3.69,3.87-12.29,20.65-19.67,20.43s-16.9-4.19-27.04,2.58c-10.14,6.77-21.31,15.81-21.31,15.81l-11.47,26.94h345.19Z"/>
  <polygon class="st3" points="832.94 530.18 832.94 543.97 826.34 543.97 826.34 523.74 806.68 530.18 806.68 543.97 789.48 543.97 789.48 527.96 785.3 527.96 785.3 510.17 772.76 510.17 772.76 519.65 767.79 519.65 767.79 527.96 763.87 527.96 763.87 717.67 780.42 717.67 789.48 717.67 852.6 717.67 852.6 543.97 852.6 523.74 832.94 530.18"/>
  <polygon class="st2" points="414.82 528.69 414.82 520.44 406.73 520.44 406.73 513.84 365.67 513.84 365.67 520.44 357.57 520.44 357.57 528.69 354.06 528.69 354.06 717.67 418.34 717.67 418.34 528.69 414.82 528.69"/>
  <polygon class="st2" points="459.4 575.69 459.4 566.15 426.38 566.15 426.38 575.69 426.38 717.67 469.57 717.67 469.57 575.69 459.4 575.69"/>
  <polygon class="st2" points="634.79 515.72 634.79 502.31 609.87 502.31 584.95 502.31 584.95 515.72 577.28 515.72 577.28 717.67 609.87 717.67 642.47 717.67 642.47 515.72 634.79 515.72"/>
  <polygon class="st2" points="267.54 601.69 267.54 586.69 235.66 586.69 235.66 601.69 227.5 601.69 227.5 717.67 275.71 717.67 275.71 601.69 267.54 601.69"/>
  <polygon class="st2" points="753.48 527.15 753.48 543.13 745.45 543.13 745.45 532.93 729.88 532.93 729.88 543.13 721.84 543.13 721.84 527.15 711.8 527.15 711.8 717.67 757 717.67 757 527.15 753.48 527.15"/>
  <polygon class="st2" points="177.87 717.67 177.87 672.39 140.96 672.39 140.96 660.24 124.38 660.24 124.38 653.88 116.1 653.88 116.1 672.39 101.28 672.39 101.28 717.67 177.87 717.67"/>
  <polygon class="st2" points="370.76 660.45 331.09 660.45 331.09 671.5 323.55 671.5 323.55 632.65 292.42 632.65 292.42 717.67 370.76 717.67 370.76 660.45"/>
  <polygon class="st2" points="469.57 717.67 524.81 717.67 524.81 670.66 509.24 670.66 509.24 653.88 487.14 653.88 487.14 663.71 469.57 663.71 469.57 717.67"/>
  <polygon class="st2" points="587.09 663.28 613.45 663.28 613.45 683.24 619.1 683.24 619.1 670.66 626.26 670.66 626.26 717.67 587.09 717.67 587.09 663.28"/>
  <path class="st3" d="M532.6,532.36h-12.72v9.8h-20.93v-34.81c0-.71-.39-1.29-.88-1.29s-.88.58-.88,1.29v34.81h0v175.5h68.22v-195.76c-27.57,0-32.81,10.45-32.81,10.45Z"/>
  <path class="st2" d="M946.45,570.17h-3.61v-9.17h-5.94v-6.84c0-5.35-6.71-9.68-14.98-9.68s-14.98,4.34-14.98,9.68h0v6.84h-5.94v9.17h-3.61v7.62h-1.81v139.88h52.68v-139.88h-1.81v-7.62h0Z"/>
  <polygon class="st2" points="183.18 591.32 183.18 578.24 203.4 578.24 203.4 591.32 208.71 591.32 208.71 609.49 217.21 609.49 217.21 717.67 208.71 717.67 200.22 717.67 177.87 717.67 177.87 591.32 183.18 591.32"/>
  <path class="st3" d="M287.47,561.09v-16.84,17.95-39.85c0-.75.61-1.36,1.36-1.36s1.36.61,1.36,1.36v31.33h12.22v7.29h9.84v-16.72h11.54v16.84h7.13v156.57h-48.19v-156.57h4.75Z"/>
  <rect x="136.56" y="614.92" width="25.59" height="102.75"/>
  <polygon points="207.96 678.3 207.96 685.06 200.97 685.06 200.97 667 189.57 667 189.57 678.17 179.35 678.17 179.35 663.28 162.15 663.28 162.15 717.67 178.28 717.67 179.35 717.67 189.57 717.67 190.75 717.67 199.57 717.67 200.97 717.67 207.96 717.67 209.68 717.67 226.24 717.67 226.24 678.3 207.96 678.3"/>
  <polygon points="306.67 675.56 306.67 569.75 250.75 569.75 250.75 717.67 301.51 717.67 306.67 717.67 316.99 717.67 316.99 675.56 306.67 675.56"/>
  <polygon points="350.97 672.12 350.97 586.96 326.45 586.96 326.45 681.15 320 681.15 320 717.67 326.45 717.67 335.48 717.67 344.52 717.67 350.97 717.67 360 717.67 360 672.12 350.97 672.12"/>
  <polygon points="235.27 638.14 235.27 675.56 226.24 675.56 226.24 717.67 235.27 717.67 241.72 717.67 250.75 717.67 250.75 638.14 235.27 638.14"/>
  <polygon points="366.73 638.14 366.73 675.56 359.68 675.56 359.68 717.67 366.73 717.67 371.77 717.67 378.82 717.67 378.82 638.14 366.73 638.14"/>
  <polygon points="136.53 684.64 136.53 675.82 130.32 675.82 130.32 684.64 118.71 684.64 118.71 671.41 106.24 671.41 106.24 684.64 100 684.64 100 717.67 136.56 717.67 136.56 684.64 136.53 684.64"/>
  <polygon points="429.14 672.98 429.14 601.37 416.45 601.37 416.45 586.96 391.51 586.96 391.51 601.37 378.82 601.37 378.82 717.67 383.44 717.67 429.14 717.67 433.76 717.67 433.76 672.98 429.14 672.98"/>
  <polygon points="737.84 555.13 737.84 522.55 741.06 522.55 741.06 502.44 746.01 502.44 746.01 482.33 762.78 482.33 762.78 502.44 767.73 502.44 767.73 522.55 770.96 522.55 770.96 555.13 774.4 555.13 774.4 717.67 734.4 717.67 734.4 555.13 737.84 555.13"/>
  <polygon points="805.78 618.46 805.78 613.06 784.46 613.06 784.46 618.46 779.38 618.46 779.38 717.67 820.89 717.67 820.89 618.46 805.78 618.46"/>
  <polygon points="567.86 556.53 567.86 665.88 558.5 665.88 558.5 682.87 553.46 682.87 553.46 665.88 544.82 665.88 544.82 557.17 502.35 557.17 502.35 717.67 510.99 717.67 535.46 717.67 544.82 717.67 553.46 717.67 558.5 717.67 567.86 717.67 577.94 717.67 600.98 717.67 610.34 717.67 610.34 556.53 567.86 556.53"/>
  <rect x="616.7" y="513.84" width="38.88" height="203.83"/>
  <polygon points="484.32 583.52 484.32 572.17 481.73 572.17 481.73 559.38 478.67 559.38 478.67 546.58 475.61 546.58 475.61 539.97 459.91 539.97 459.91 546.58 456.84 546.58 456.84 559.38 453.78 559.38 453.78 572.17 451.2 572.17 451.2 583.52 447.97 583.52 447.97 717.67 487.54 717.67 487.54 583.52 484.32 583.52"/>
  <polygon points="498.1 674.92 486.05 674.92 486.05 692.66 478.63 692.66 478.63 687.17 466.05 687.17 466.05 681.37 460.25 681.37 460.25 683.79 450.57 683.79 450.57 690.08 443.79 690.08 443.79 681.69 432.18 681.69 432.18 689.43 426.38 689.43 426.38 717.67 498.1 717.67 498.1 674.92"/>
  <rect x="695.02" y="597.28" width="33.55" height="120.39"/>
  <rect x="659.6" y="549.54" width="32.4" height="168.13"/>
  <polygon points="837.6 611.8 837.6 602.87 867.6 602.87 867.6 611.8 871.47 611.8 871.47 717.67 833.72 717.67 833.72 611.8 837.6 611.8"/>
  <polygon points="871.47 657.01 887.93 657.01 887.93 675.01 891.74 675.01 891.74 666.01 902.72 666.01 902.72 663.41 907.97 663.41 907.97 666.01 910.83 666.01 910.83 677.45 918.7 677.45 918.7 667.23 926.33 667.23 926.33 677.45 934.44 677.45 934.44 657.01 942.55 657.01 942.55 677.45 950.19 677.45 950.19 680.5 960.8 680.5 960.8 674.09 968.56 674.09 968.56 663.41 986.93 663.41 986.93 673.79 997.3 673.79 997.3 663.87 1008.04 663.87 1008.04 673.94 1016.51 673.94 1016.51 666.92 1023.78 666.92 1028.67 666.92 1028.67 657.01 1037.5 657.01 1037.5 680.5 1042.03 680.5 1042.03 673.79 1047.04 673.79 1047.04 667.38 1062.55 667.38 1062.55 680.5 1065.41 680.5 1065.41 667.07 1068.99 667.07 1068.99 663.41 1079.25 663.41 1079.25 667.07 1084.97 674.4 1090.22 674.4 1090.22 662.8 1096.42 662.8 1096.42 678.67 1100 678.67 1100 717.67 871.47 717.67 871.47 657.01"/>
  <polygon class="st0" points="442.79 665.76 433.96 680.36 433.76 680.36 433.76 688.88 412.57 688.88 412.57 683.77 364.84 683.77 364.84 680.36 357.41 669.57 353.39 669.57 353.39 661.96 335.43 661.96 335.43 669.57 331.41 669.57 323.98 680.36 293.65 680.36 286.22 669.57 282.2 669.57 282.2 661.96 264.24 661.96 264.24 669.57 260.22 669.57 252.79 680.36 252.79 690.72 227.77 690.72 227.77 717.67 252.79 717.67 252.79 717.67 364.82 717.67 364.84 717.67 433.76 717.67 451.83 717.67 451.83 680.36 451.63 680.36 442.79 665.76"/>
  <polygon class="st0" points="701.04 699.37 701.04 694.36 724.85 694.36 724.85 669.54 805.8 669.54 805.8 685.28 816.51 685.28 816.51 693.15 824.37 693.15 824.37 672.26 837.23 672.26 837.23 717.67 825.56 717.67 824.37 717.67 816.51 717.67 814.13 717.67 805.8 717.67 805.08 717.67 724.85 717.67 709.13 717.67 701.04 717.67 685.32 717.67 685.32 699.37 701.04 699.37"/>
  <path class="st0" d="M876.05,668.59v23.77h14.38l19.23-29.34,19.23,29.34v25.31h-79.46v-44.82h0s4.25-4.26,26.64-4.26Z"/>
  <polygon class="st0" points="692 677.13 678.34 677.13 678.34 689.16 675.17 689.16 675.17 683.15 666.07 683.15 666.07 681.41 661.71 681.41 661.71 683.15 659.34 683.15 659.34 690.79 652.8 690.79 652.8 683.96 646.47 683.96 646.47 690.79 639.74 690.79 639.74 677.13 633.01 677.13 633.01 690.79 626.67 690.79 626.67 692.83 617.86 692.83 617.86 688.55 611.43 688.55 611.43 681.41 596.18 681.41 596.18 688.35 587.57 688.35 587.57 681.72 578.66 681.72 578.66 688.45 571.64 688.45 571.64 683.76 565.6 683.76 561.54 683.76 561.54 677.13 554.22 677.13 554.22 692.83 550.45 692.83 550.45 688.35 546.3 688.35 546.3 684.07 533.43 684.07 533.43 692.83 531.05 692.83 531.05 683.86 528.08 683.86 528.08 681.41 519.57 681.41 519.57 683.86 514.82 688.76 510.46 688.76 510.46 681.01 505.32 681.01 505.32 691.61 502.35 691.61 502.35 717.67 692 717.67 692 677.13"/>
  <g>
    <rect class="st1" x="100" y="698.37" width="1000" height="17.05"/>
    <rect x="100" y="700.62" width="1000" height="17.05"/>
  </g>
</svg>