<?xml version="1.0" encoding="UTF-8"?>
<svg id="Layer_1" xmlns="http://www.w3.org/2000/svg" version="1.1" viewBox="0 0 1200 1200">
  <!-- Generator: Adobe Illustrator 30.1.0, SVG Export Plug-In . SVG Version: 2.1.1 Build 136)  -->
  <defs>
    <style>
      .st0 {
        fill: #414042;
      }

      .st1 {
        fill: #6d6e71;
      }

      .st2 {
        fill: #808285;
      }

      .st3 {
        fill: #a7a9ac;
      }
    </style>
  </defs>
  <path class="st3" d="M355.45,520.89v-23.1,24.64-54.7c0-1.03-.55-1.87-1.23-1.87s-1.23.84-1.23,1.87v43h-11.07v10h-8.92v-22.95h-10.45v23.1h-6.46v214.87h43.66v-214.87h-4.31Z"/>
  <polygon class="st3" points="849.35 644.02 849.35 633.88 836.28 633.88 836.28 541.42 802.59 541.42 802.59 649.91 796.05 649.91 796.05 670.67 789.52 670.67 789.52 735.77 796.05 735.77 802.59 735.77 809.12 735.77 836.28 735.77 847.8 735.77 849.35 735.77 866.14 735.77 866.14 644.02 849.35 644.02"/>
  <path class="st2" d="M475.53,550.52v-7.13h-2.41l-7.58-12.95h-1.05l-2.92-25.66h-1.55v-34.81c0-.39-.42-.71-.95-.71s-.95.32-.95.71v34.81h-1.55l-2.92,25.66h-1.05l-7.58,12.95h-3.09v7.13h-3.79v185.25h41.17v-185.25h-3.79Z"/>
  <polygon class="st2" points="391.12 528.9 391.12 519.31 385.12 519.31 385.12 508.38 369.97 508.38 369.97 528.9 364.92 528.9 364.92 735.77 395.86 735.77 395.86 528.9 391.12 528.9"/>
  <polygon class="st2" points="238.77 631.1 238.77 619.53 225.7 619.53 225.7 514.06 192.01 514.06 192.01 637.83 185.47 637.83 185.47 661.51 178.94 661.51 178.94 735.77 185.47 735.77 192.01 735.77 198.54 735.77 225.7 735.77 237.22 735.77 238.77 735.77 255.56 735.77 255.56 631.1 238.77 631.1"/>
  <polygon points="314.02 488.37 314.02 735.77 239.73 735.77 239.73 545.21 243.15 545.21 243.15 536.37 245.76 536.37 245.76 527.53 248.16 527.53 248.16 518.49 250.94 518.49 250.94 509.49 253.34 509.49 253.34 500.45 257.82 499.52 257.82 491.51 263.93 488.37 314.02 488.37"/>
  <polygon points="209.3 560.84 209.3 550.48 198.98 550.48 198.98 537.89 181.34 537.89 181.34 532.79 170.22 528.32 140.83 528.32 140.83 539.33 119.06 542.03 119.06 735.77 217.25 735.77 217.25 560.84 209.3 560.84"/>
  <path class="st3" d="M590.72,535.9v-21.49,22.92-50.87c0-.96-1.19-1.74-2.65-1.74s-2.65.78-2.65,1.74v40h-23.85v9.3h-19.21v-21.35h-22.52v21.49h-13.91v199.87h94.07v-199.87h-9.28Z"/>
  <path class="st3" d="M949.3,562.17l-13.69-17.89h-6.01l-4.51-9.95h-1.66l-1.18-19.72h-.31v-26.75c0-.61-.31-1.1-.7-1.1s-.7.49-.7,1.1v26.75h-.31l-1.18,19.72h-1.66l-4.51,9.95h-3.76l-11.46,17.89h-8.69l-2.81,6.48h-20.91v167.11h87.74v-167.11h-3.68v-6.48h0Z"/>
  <path class="st2" d="M694.94,514.59l-24.2-9.19c.06-.1.11-.2.11-.31v-40.14c0-.39-.42-.7-.94-.7s-.94.32-.94.7v40.14c0,.11.04.22.11.31l-24.2,9.19v10.56h-4.21v210.62h58.48v-210.62h-4.21v-10.56h0Z"/>
  <polygon class="st2" points="804.96 558.36 797.53 558.36 797.53 552.24 770.65 552.24 770.65 558.36 763.22 558.36 763.22 564.48 752.65 564.48 752.65 735.77 815.52 735.77 815.52 564.48 804.96 564.48 804.96 558.36"/>
  <polygon class="st2" points="954.27 595.88 954.27 619.31 942.94 619.31 942.94 581.21 885.12 581.21 885.12 619.31 885.12 735.77 973.59 735.77 973.59 619.31 973.59 585.13 954.27 595.88"/>
  <polygon points="1033.88 612.5 1033.88 554.47 1031.32 554.47 1031.32 504.41 1026.48 504.41 1026.48 482.41 1024.88 482.41 1024.88 492.06 1020.32 492.06 1020.32 482.41 1014.78 482.41 1014.78 492.06 1010.22 492.06 1010.22 482.41 1004.67 482.41 1004.67 492.06 1000.12 492.06 1000.12 482.41 994.57 482.41 994.57 492.06 990.02 492.06 990.02 482.41 983.97 482.41 983.97 492.06 979.41 492.06 979.41 482.41 977.82 482.41 977.82 504.41 972.98 504.41 972.98 554.47 970.42 554.47 970.42 612.5 966.72 612.5 966.72 735.77 1037.58 735.77 1037.58 612.5 1033.88 612.5"/>
  <path d="M1100,588.14v-2.14h-3.36v-25.26h-6.41v-5.21h5.19v-3.37h-17.4c-2.75,0-19.53,0-36.32,10.72v172.89h54.94v-17.79h3.36v-2.14h-3.36v-5.97h3.36v-2.14h-3.36v-5.97h3.36v-2.14h-3.36v-5.97h3.36v-2.14h-3.36v-5.97h3.36v-2.14h-3.36v-5.97h3.36v-2.14h-3.36v-5.97h3.36v-2.14h-3.36v-5.97h3.36v-2.14h-3.36v-5.97h3.36v-2.14h-3.36v-5.97h3.36v-2.14h-3.36v-5.97h3.36v-2.15h-3.36v-5.97h3.36v-2.14h-3.36v-5.97h3.36v-2.14h-3.36v-5.97h3.36v-2.14h-3.36v-5.97h3.36v-2.14h-3.36v-5.97h3.36v-2.14h-3.36v-5.97h3.36Z"/>
  <polygon points="957.98 656.97 936.05 656.97 936.05 636.41 923.66 636.41 920.16 633.62 911.11 631.02 911.11 627.96 901.42 627.96 901.42 636.41 891.88 636.41 888.39 633.62 878.7 630.83 878.7 636.41 878.7 735.77 962.59 735.77 962.59 656.97 957.98 656.97"/>
  <path d="M847.24,547.93l11.68-2.39h16.92l2.86,3.83v186.4h-41.71v-114.19s1.11-2.07,5.56-2.07v-62.97s.4-1.43,4.69-1.43c0-1.67,0-7.17,0-7.17Z"/>
  <polygon points="804.96 567.3 804.96 560.96 800.95 560.96 800.72 551.64 800.52 560.96 798.13 560.96 790.97 562.21 790.55 545.18 790.18 562.34 786.74 562.94 786.07 535.86 785.49 563.16 779.85 564.13 779.85 569.64 779.85 569.64 770.67 570.89 770.67 735.77 811.78 735.77 811.78 567.3 804.96 567.3"/>
  <path d="M743.82,519.4v-6.7s6.92.64,6.92-2.39-3.71-3.35-4.57-3.35-5.19,1.59-7.04.8-6.18-2.87-8.4-1.59-3.1,1.59-5.81,1.43-3.95,1.09-6.17,1.66-4.33-.06-6.43,1.21-3.21.32-5.07.32-3.71,1.87-4.94,1.97-5.68.26-1.61,2.65c3.46,1.75,4.8,1.75,5.3.96v7.85l-14.32,2.2v209.36h66.73v-216.37h-14.58Z"/>
  <path d="M658.66,572.69h0v-44.85l-30.12,5.26-6.23.9v-5.04c.53-.27.9-.89.9-1.6s-.37-1.32-.9-1.6v-37.1c.53-.27.9-.89.9-1.6,0-.97-.68-1.75-1.52-1.75s-1.52.79-1.52,1.75c0,.71.37,1.32.9,1.6v37.1c-.53.27-.9.89-.9,1.6s.37,1.32.9,1.6v5.22l-25.76,3.71v37.38l-10.39,1.04-31.16,5.58v153.88h116.35v-162.01l-11.43-1.06Z"/>
  <path d="M477.48,566.82v-4.3l2.86-2.39,18.59-4.54,3.34,3.59s2.5.48,2.5,2.03h6.91s2.38.84,2.38,3.59c.6,0,5.2,1.32,5.2,1.32v90.87h19.22v78.79h-65.3v-167.43l4.29-1.52Z"/>
  <polygon points="344.54 568.41 344.54 735.77 442.98 735.77 442.98 578.65 419.62 578.65 415.74 575.38 381.23 577.66 364.36 572.39 355.73 572.68 344.54 568.41"/>
  <path class="st0" d="M1100,713.55v-9.54c-6.95-.46-589.64-39.1-876.44-45.88l-3.29-19.12-9.39,1.63,2.97,17.27c-1.03-.02-2.06-.04-3.08-.07l-20.68-47.89-8.75,3.8,18.95,43.88c-24.95-.46-47.16-.63-65.94-.45l1.66-6.9-9.27-2.25-2.24,9.28c-9.18.16-17.39.41-24.52.78v9.55c6.39-.32,14.14-.56,22.2-.72l-6.66,27.67h-15.54v41.17h38.69v-41.17h-13.34l6.7-27.82c20.25-.23,44.69-.04,72.41.5l11.8,27.32h-4.79v41.17h38.45v-35.76c1.07.02,11.53.22,29.24.55v35.21h4.77v-35.11c5.24.1,11.03.21,17.31.33v34.79h4.77v-34.7c4.86.09,9.99.19,15.37.29v34.4h4.77v-34.31c5.49.1,11.21.21,17.16.33v33.99h4.77v-33.9c5.36.1,10.88.21,16.56.32v33.58h4.77v-33.49c4.57.09,9.23.18,13.99.27v33.22h9.53v-33.03c4.44.09,8.95.17,13.54.26v32.77h4.77v-32.68c5.36.1,10.8.21,16.32.32v32.36h4.77v-32.27c5.67.11,11.42.22,17.24.34v31.94h4.77v-31.84c5.11.1,10.27.2,15.49.3v31.54h4.77v-31.45c5.77.11,11.6.23,17.48.34v31.11h4.77v-31.01c5.36.1,10.76.21,16.19.32v30.69h9.53v-30.51c.65.01,1.3.03,1.96.04v30.47h13.95v-30.19c3.43.07,6.87.14,10.32.21v29.99h4.77v-29.89c.58.01,1.16.02,1.75.03v29.86h4.77v-29.76c5.22.1,10.47.21,15.72.31v29.45h4.77v-29.35c2.96.06,5.93.12,8.9.18v29.18h4.77v-29.08c.64.01,1.27.03,1.91.04v29.04h4.77v-28.95c5.16.1,10.32.21,15.49.31v28.64h4.77v-28.54c5.16.1,10.33.21,15.49.31v28.22h4.77v-28.13c1.48.03,2.96.06,4.43.09v28.04h9.53v-27.84c1.61.03,3.22.07,4.83.1v27.75h9.53v-27.55c2.32.05,4.64.09,6.95.14v27.41h4.77v-27.31c4.8.1,9.6.2,14.38.3v27.01h4.77v-26.92c5,.1,9.97.21,14.93.31v26.61h4.77v-26.51c4.82.1,9.61.2,14.38.3v26.21h4.77v-26.11c4.64.1,9.24.2,13.83.29v25.82h4.77v-25.71c3.94.08,7.85.17,11.75.25v25.47h9.53v-25.26c2.41.05,4.81.1,7.2.15v25.11h9.53v-24.9c4.39.09,8.75.19,13.06.28v24.62h4.77v-24.51c4.31.09,8.57.19,12.79.28v24.23h4.77v-24.13c10.46.23,20.62.46,30.43.68v23.45h4.77v-23.34c4.51.1,8.94.21,13.3.3v23.03h9.53v-22.81c5.55.13,10.94.26,16.18.38v22.43h9.53v-22.2c3.63.09,7.17.17,10.63.26v21.94h4.77v-21.82c40.26,1.01,163.15,1.83,169.46,2.32v-4.77c-7.12-.56-135.95-1.52-184.85-2.71v-6.9c107.48,6.59,182.41,11.51,184.86,11.67ZM215.5,667.5l.37,2.16-.94-2.17c.19,0,.38,0,.57.01ZM229.84,694.59l-4.63-26.87c3.43.08,6.9.17,10.42.26v26.61h-5.79ZM249.95,695.23l-.04,2.41v-3.04h-4.74v-26.35c41.58,1.15,88.42,2.88,138.22,4.99v24.53c-77.86-1.5-131.48-2.5-133.43-2.54ZM392.91,697.95v-24.31c38.71,1.67,79.09,3.57,120.08,5.61v21.03c-43.08-.85-83.95-1.64-120.08-2.34ZM522.53,700.48v-20.75c.65.03,1.3.07,1.96.1v20.69c-.65-.01-1.31-.03-1.96-.04ZM534.02,700.7v-20.39c37.18,1.88,74.71,3.87,111.8,5.9v16.74c-37.53-.76-75.29-1.52-111.8-2.24ZM655.36,703.14v-16.41c1.61.09,3.22.18,4.83.27v16.24c-1.61-.03-3.22-.07-4.83-.1ZM669.72,703.43v-15.91c34.07,1.89,67.62,3.79,100.04,5.68v12.32c-32.13-.68-65.85-1.39-100.04-2.09ZM779.29,705.72v-11.97c2.41.14,4.81.28,7.2.42v11.71c-2.39-.05-4.79-.1-7.2-.15ZM796.03,706.08v-11.35c29.22,1.72,57.34,3.4,83.87,5v8.22c-25.49-.59-53.79-1.22-83.87-1.87ZM905.61,708.56c-5.24-.12-10.64-.25-16.18-.38v-7.86c5.47.33,10.86.66,16.18.99v7.26Z"/>
  <g>
    <rect class="st1" x="100" y="718.23" width="1000" height="15.5"/>
    <rect x="100" y="720.27" width="1000" height="15.5"/>
  </g>
  <path class="st3" d="M194.98,717.74s-7.17-6.04-7.89-7.09c-6.13-.94-16.28.39-19.86,1.17-3.58.78-3.12,4.38-3.12,4.38h2.8v-1.95h4.67v6.96c-2.73,0-2.26,4.61-2.26,4.61,0,0-4.99-.26-10.7,1.41-5.71,1.67-5.5,3.33-5.5,3.33h-2.7l.1-2.6h-4.57c-2.6,0-2.29,3.85-2.29,3.85h3.53v3.96h48.81c7.68,0,15.16-14.59,15.16-14.59l4.57-1.04-20.77-2.4ZM174.62,713.26h5.71v1.88l-5.5,5.52s-1.45-1.69-1.45-3.7c.88-.89,1.25-3.7,1.25-3.7Z"/>
  <path class="st3" d="M414.23,720.14l4.57,1.04s7.48,14.59,15.16,14.59h48.81v-3.96h3.53s.31-3.85-2.29-3.85h-4.57l.1,2.6h-2.7s.21-1.67-5.5-3.33-10.7-1.41-10.7-1.41c0,0,.47-4.61-2.26-4.61v-6.96h4.67v1.95h2.8s.47-3.59-3.12-4.38-13.73-2.11-19.86-1.17c-.73,1.04-7.89,7.09-7.89,7.09l-20.77,2.4ZM456.6,716.96c0,2.01-1.45,3.7-1.45,3.7l-5.5-5.52v-1.88h5.71s.36,2.82,1.25,3.7Z"/>
</svg>