<?xml version="1.0" encoding="UTF-8"?>
<svg id="Layer_1" xmlns="http://www.w3.org/2000/svg" version="1.1" viewBox="0 0 1200 1200">
  <!-- Generator: Adobe Illustrator 30.1.0, SVG Export Plug-In . SVG Version: 2.1.1 Build 136)  -->
  <defs>
    <style>
      .st0 {
        fill: #414042;
      }

      .st1 {
        fill: #6d6e71;
      }

      .st2 {
        fill: #808285;
      }

      .st3 {
        fill: #a7a9ac;
      }
    </style>
  </defs>
  <polygon class="st3" points="869.43 599.1 869.43 625.19 856.77 625.19 856.77 582.76 792.17 582.76 792.17 625.19 792.17 754.87 891.01 754.87 891.01 625.19 891.01 587.12 869.43 599.1"/>
  <polygon class="st2" points="605.63 656.04 605.63 600.55 558.66 600.55 558.66 754.87 600.4 754.87 605.63 754.87 647.37 754.87 647.37 656.04 605.63 656.04"/>
  <path class="st2" d="M258.83,594.17h4.33v-5.41h7.85v-50.19c20.61,0,24.53,7.89,24.53,7.89h16.03v208.41h-58.91v-155.29h6.17v-5.41h0Z"/>
  <path class="st2" d="M383.09,636.46h1.43c1.17,0,2.12-.95,2.12-2.12v-7.78c0-1.17-.95-2.12-2.12-2.12h-1.43c-1.17,0-2.12.95-2.12,2.12v1.05h-7.78v-2.57c0-2.19-1.78-3.97-3.97-3.97h-1.55v-27.59h-5.96v-24.94h-4.86v-12.31h4.26l-8.39-10.06v-9.89h4.91v-1.9h-4.91v-5.74h-1.9v5.74h-4.91v1.9h4.91v9.89l-8.39,10.06h4.26v12.31h-4.86v24.94h-5.96v27.59h-1.55c-2.19,0-3.97,1.78-3.97,3.97v2.57h-7.78v-1.05c0-1.17-.95-2.12-2.12-2.12h-1.43c-1.17,0-2.12.95-2.12,2.12v7.78c0,1.17.95,2.12,2.12,2.12h1.43c1.17,0,2.12-.95,2.12-2.12v-1.05h7.78v6.32h-13.47v115.26h69.76v-115.26h-13.46v-6.32h7.78v1.05c0,1.17.95,2.12,2.12,2.12h0Z"/>
  <polygon points="830.1 609.46 830.1 607.58 827.51 607.58 827.51 601.07 825.61 601.07 825.61 598.42 822.42 598.42 822.42 590.63 819.92 590.63 819.92 582.85 818.47 582.85 818.47 580.3 815.15 580.3 815.15 566.43 812.52 566.43 812.52 552 809.89 552 809.89 580.3 807.33 580.3 807.33 582.85 805.89 582.85 805.89 590.63 803.38 590.63 803.38 598.42 800.19 598.42 800.19 601.07 798.29 601.07 798.29 607.58 795.7 607.58 795.7 609.46 793.35 609.46 793.35 754.87 832.45 754.87 832.45 609.46 830.1 609.46"/>
  <path class="st2" d="M756.88,583v-18.48,19.71-43.75c0-.82-1.25-1.5-2.78-1.5s-2.78.67-2.78,1.5v34.39h-24.99v8h-20.13v-18.36h-23.6v18.48h-14.58v171.87h98.58v-171.87h-9.72Z"/>
  <path class="st3" d="M435.94,605.59l14.34-15.39h6.3l4.73-8.56h1.74l1.24-16.96h.32v-23c0-.52.33-.94.74-.94s.74.42.74.94v23h.32l1.24,16.96h1.74l4.73,8.56h3.94l12.01,15.39h9.1l2.94,5.57h21.91v143.71h-91.94v-143.71h3.86v-5.57h0Z"/>
  <polygon class="st2" points="1043.29 609.97 1028.61 609.97 1028.61 604.57 1003.86 604.57 1003.86 609.97 999.47 609.97 999.47 620.48 994.83 620.48 991.04 620.48 991.04 607.41 984.19 607.41 984.19 594.33 975.66 594.33 975.66 583.4 971.76 583.4 971.76 572.47 944.02 572.47 944.02 583.4 940.12 583.4 940.12 594.33 931.59 594.33 931.59 607.41 924.74 607.41 924.74 620.48 920.95 620.48 920.95 754.87 994.83 754.87 1062.4 754.87 1062.4 620.48 1043.29 620.48 1043.29 609.97"/>
  <polygon points="1016.69 607.1 1016.69 617.97 1010 617.97 1010 602.02 990.1 607.1 990.1 617.97 972.69 617.97 972.69 605.35 968.46 605.35 968.46 591.33 955.76 591.33 955.76 598.79 950.73 598.79 950.73 605.35 946.76 605.35 946.76 754.87 963.52 754.87 972.69 754.87 1036.58 754.87 1036.58 617.97 1036.58 602.02 1016.69 607.1"/>
  <polygon points="311.66 691.08 311.66 686.33 306.92 686.33 306.92 659.03 281.04 681.58 281.04 686.33 276.3 686.33 276.3 691.08 274.54 691.08 274.54 754.87 313.43 754.87 313.43 691.08 311.66 691.08"/>
  <polygon points="443.89 614.25 443.89 610.81 436.14 610.81 436.14 607.37 410.79 607.37 410.79 610.81 403.04 610.81 403.04 614.25 391.67 614.25 391.67 754.87 455.26 754.87 455.26 614.25 443.89 614.25"/>
  <path d="M372.75,641.99v-9.48h-5.3c0-3.46-2.81-6.27-6.27-6.27h-15.75c-3.46,0-6.27,2.81-6.27,6.27h-5.3v9.48h-2.57v112.88h44.04v-112.88h-2.58Z"/>
  <rect x="478.04" y="687.61" width="27.24" height="67.26"/>
  <polygon points="565.31 552.41 565.31 547.67 520.39 547.67 520.39 552.41 513.45 552.41 513.45 754.87 580.16 754.87 580.16 552.41 565.31 552.41"/>
  <path class="st0" d="M232.64,711.15v-60.79h2.65v-9.35h-14.34v-11.69h-7.95v-20.34c0-.48.11-.96.29-1.4.53-1.3,1.58-4.88,1.58-12.59,0-2.75,4.61-18.08.27-36.75-.15-.67-.5-1.28-.96-1.79-1.2-1.33-2.06-3.31,1.39-3.31,4.09,0,9-3.74,9-14.49,0-.54,2.3-2.02,2.72-2.4,1.12-1.02,2.13-2.14,2.93-3.44,1.09-1.78,1.77-3.78,2.22-5.81.32-1.42.52-2.86.66-4.31.15-1.52.54-3.39.25-4.89-.36-1.85-2.07-2.29-3.46-3.21-.68-.45-1.37-.89-2.06-1.33-1.68-1.07-3.89-.72-5.15.82s-2.7,3.18-3.1,3.33c-.95.37-2.35.29-3.64.19-1.26-.1-2.39-.77-3.06-1.83-.97-1.54-2.35-3.99-3.38-6.92,0,0-.47-7.71-10.64-16.37-3.16-5.88,1.52-7.95-.47-17.42,2.46,0,8.88-1.4,8.88-1.4l-8.77-1.87,7.6-4.91-10.17,1.29,5.49-9-8.3,7.01s-2.92,1.05-2.92-1.52-1.52-13.33-1.52-13.33c0,0-1.4,12.74-1.87,13.56s-2.1,1.75-4.91-.12-7.37-5.03-7.37-5.03c0,0,6.43,7.72,6.2,9-.23,1.29-8.88-.82-8.88-.82,0,0,7.83,2.81,7.37,3.62-.47.82-5.14,1.99-5.14,1.99,0,0,5.26,1.05,5.26,1.99s.82,7.71-2.57,7.71-1.64-6.43-3.62-9.47-2.65-10.4-4.25-14.73c-1.6-4.33-4.52-18.59-4.52-23.5s-.93-7.48-.93-7.48h5.46v-3.2h-1.56v-3.2h-1.17v-1.87h-3.82v-3.2s6.47-3.74-1.01-11.46c0,0-.23,4.44-3.04,4.44-1.52,1.52-3.04,6.43,0,9.12v1.52h-4.68v1.44h-1.17v3.2h-1.56v3.2h4.83s3.16,17.42,3.51,20.11.47,15.43,2.57,21.86c0,0,.79,4.37.51,7.11-.08.83-.44,1.58-1.02,2.17-1.52,1.55-4.29,6.83-4.29,9.42s3.96,9.77,6.79,12.81c.64.68.97,1.56.98,2.5.03,3.65.03,11.55,3.57,15.09.78.79-.03,3.14-.24,4.01-.52,2.05-1.21,4.2-2.23,6.06-2.24,4.08-2.71,11.64.83,15.18,1.35,1.35-.64,4.42-1.26,5.67-1.4,2.84-1.36,6.19-1.05,9.31.29,2.86,1.6,7.32,3.31,9.63.53.72.88,1.54.88,2.44v57.91h-7.95v11.69h-14.34v9.35h2.65v60.79h-5.92v43.72h95.54v-43.72h-5.93Z"/>
  <polygon points="687.1 716.45 687.1 552 611.98 552 611.98 754.87 630.11 754.87 687.1 754.87 705.23 754.87 705.23 716.45 687.1 716.45"/>
  <polygon points="769.07 576.04 769.07 572.03 767.51 572.03 767.51 574.03 762.08 574.03 762.08 572.03 760.51 572.03 760.51 574.03 754.87 574.03 754.87 572.03 753.3 572.03 753.3 574.03 746.03 574.03 746.03 572.03 744.46 572.03 744.46 574.03 733.49 574.03 733.49 572.03 731.93 572.03 731.93 574.03 726.62 574.03 726.62 572.03 725.05 572.03 725.05 574.03 723.37 574.03 723.37 576.04 723.37 698.73 698.78 698.73 698.78 754.87 723.37 754.87 731.08 754.87 770.62 754.87 770.62 576.04 769.07 576.04"/>
  <path d="M887.13,573.57v-15.69l-3.43-3.43v-8.53h.02l-3.79-3.82v-10.18c0-.32-.26-.59-.59-.59s-.59.26-.59.59v10.18l-3.79,3.82v8.53h-2.16l-26.48,19.12v181.29h44.33v-181.29h-3.53,0Z"/>
  <polygon points="934.03 713.83 934.03 633.1 926.95 633.1 926.95 626.46 908.31 626.46 908.31 633.1 901.24 633.1 901.24 754.87 917.63 754.87 934.03 754.87 950.42 754.87 950.42 713.83 934.03 713.83"/>
  <polygon points="1041.5 704.75 1041.5 639.05 1070.67 639.05 1070.67 754.87 1041.5 754.87 1012.33 754.87 1012.33 704.75 1041.5 704.75"/>
  <polygon points="1088.24 719.77 1088.24 696.93 1070.67 696.93 1070.67 754.87 1088.24 754.87 1105.81 754.87 1105.81 719.77 1088.24 719.77"/>
  <polygon class="st0" points="630.9 713.84 603.45 713.84 603.45 726.01 597.08 726.01 597.08 719.93 578.78 719.93 578.78 718.17 570.03 718.17 570.03 719.93 565.26 719.93 565.26 727.67 552.13 727.67 552.13 720.75 539.4 720.75 539.4 727.67 525.87 727.67 525.87 713.84 512.35 713.84 512.35 727.67 499.62 727.67 499.62 729.73 481.91 729.73 481.91 725.4 468.98 725.4 468.98 718.17 438.35 718.17 438.35 725.19 421.05 725.19 421.05 718.48 403.15 718.48 403.15 725.29 389.02 725.29 389.02 720.54 376.89 720.54 368.73 720.54 368.73 713.84 354.02 713.84 354.02 729.73 346.46 729.73 346.46 725.19 338.1 725.19 338.1 720.85 312.24 720.85 312.24 729.73 307.47 729.73 307.47 720.65 301.5 720.65 301.5 718.17 284.4 718.17 284.4 720.65 274.85 725.6 266.1 725.6 266.1 717.76 255.75 717.76 255.75 728.49 249.79 728.49 249.79 754.87 630.9 754.87 630.9 713.84"/>
  <polygon class="st0" points="745.28 706.08 745.28 700.56 731.87 700.56 731.87 706.08 728.86 706.08 723.31 713.91 702.31 713.91 702.31 725.43 658.6 725.43 658.6 754.87 702.31 754.87 702.31 754.64 753.84 754.64 753.84 713.91 748.29 706.08 745.28 706.08"/>
  <polygon class="st0" points="927.69 707.05 934.3 715.86 934.44 715.86 934.44 721 950.28 721 950.28 717.92 985.95 717.92 985.95 715.86 991.51 709.34 994.51 709.34 994.51 704.75 1007.93 704.75 1007.93 709.34 1010.94 709.34 1016.49 715.86 1039.16 715.86 1044.71 709.34 1047.72 709.34 1047.72 704.75 1061.13 704.75 1061.13 709.34 1064.14 709.34 1069.69 715.86 1069.69 722.11 1088.39 722.11 1088.39 754.87 1069.69 754.87 1069.69 754.87 985.97 754.87 985.95 754.87 934.44 754.87 920.95 754.87 920.95 715.86 921.09 715.86 927.69 707.05"/>
  <polygon class="st0" points="898.94 706.46 895.36 706.46 895.36 703.95 891.78 703.95 891.78 708.96 889.7 708.96 889.7 703.95 886.12 703.95 886.12 706.46 882.55 706.46 882.55 708.96 870.12 708.96 870.12 754.87 911.36 754.87 911.36 708.96 898.94 708.96 898.94 706.46"/>
  <path class="st0" d="M837.9,728.55v-13.98h-24.89v3.04h-16.31v-3.48h-5.36v-3.48h-.07l-9.08-3.53v-8.91c0-.25-.26-.45-.58-.45s-.58.2-.58.45v8.91l-9.08,3.53v3.48h-5.36v40.74h84.8v-26.32h-13.5.01Z"/>
  <g>
    <rect class="st1" x="105.81" y="735.34" width="1000" height="17.26"/>
    <rect x="105.81" y="737.61" width="1000" height="17.26"/>
  </g>
</svg>