<svg width="35" height="49" viewBox="0 0 35 49" fill="none" xmlns="http://www.w3.org/2000/svg">
<path d="M6.30667 -0.000443942C7.852 0.0662227 9.39867 0.212892 10.9733 0.439559C12.9333 2.78623 11.612 5.69289 10.9453 8.26622C14.8387 13.4529 21.7067 11.0129 27.2253 11.4929C27.2667 11.9596 27.3453 12.9062 27.3867 13.3729C23.5467 13.3862 19.7067 13.4262 15.88 13.5062C18.2 20.1329 20.6 26.7329 22.7853 33.4129C26.9733 33.6129 31.48 30.5862 34.6253 34.7196C30.692 33.9596 27.0533 36.2396 23.1467 35.5596C20.7987 35.3596 18.452 35.1329 16.1067 35.0662C16.0933 39.4396 16.0933 43.8262 16.0787 48.2129C13.692 48.1729 11.3067 48.1196 8.97333 48.0129C10.2253 46.5062 12.1187 46.1196 13.88 45.5329C13.732 41.0529 14.44 36.3596 12.6787 32.1196C11.0787 28.0929 10.1187 23.8529 9.66667 19.5596C6.02533 19.5996 2.2 19.4129 0 16.1062C3.23867 16.9596 6.51867 17.5996 9.90533 17.8129C10.292 12.2396 7.70667 7.42622 4.64 3.02622C5.05333 2.27956 5.88 0.759556 6.30667 -0.000443942Z" fill="black"/>
</svg>
