<?xml version="1.0" encoding="UTF-8"?>
<svg id="Layer_1" xmlns="http://www.w3.org/2000/svg" version="1.1" viewBox="0 0 1200 1200">
  <!-- Generator: Adobe Illustrator 30.1.0, SVG Export Plug-In . SVG Version: 2.1.1 Build 136)  -->
  <defs>
    <style>
      .st0 {
        fill: #8484af;
      }

      .st1 {
        fill: #2f2f3f;
      }

      .st2 {
        fill: #4a4a66;
      }

      .st3 {
        fill: #6a6a93;
      }
    </style>
  </defs>
  <g>
    <polygon class="st1" points="1087.96 715.15 1043.51 715.15 1043.51 749.2 1087.96 750.24 1087.96 715.15"/>
    <polygon class="st1" points="961.36 747.27 995.38 518.13 1028.54 750.86 961.36 747.27"/>
    <rect class="st3" x="704.51" y="666.06" width="113.2" height="76.37"/>
    <rect class="st0" x="586.13" y="656.21" width="30.33" height="68.41"/>
    <rect class="st3" x="868.67" y="673.08" width="62.93" height="77.78"/>
    <rect class="st3" x="847.7" y="584.79" width="50.01" height="162.93"/>
    <rect class="st3" x="851.58" y="570.11" width="42.25" height="14.68"/>
    <rect class="st3" x="859.73" y="558.39" width="25.96" height="11.72"/>
    <path class="st3" d="M570.94,448.2h-22.25s-34.99,157.54-17.49,302.66h57.24c17.49-145.12-17.49-302.66-17.49-302.66Z"/>
    <rect class="st3" x="489.73" y="659.62" width="18.11" height="88.04"/>
    <rect class="st1" x="496.45" y="674.34" width="32.41" height="73.38"/>
    <rect class="st0" x="472.06" y="621.85" width="17.67" height="125.43"/>
    <polygon class="st0" points="463 558.63 463 540.12 489.73 621.85 463 621.85 463 560.63 463 558.63"/>
    <polygon class="st3" points="463 540.12 489.73 552.02 489.73 621.85 463 540.12"/>
    <rect class="st0" x="445.33" y="558.63" width="39.42" height="187.73"/>
    <rect class="st3" x="459.37" y="558.63" width="25.37" height="187.73"/>
    <rect class="st3" x="381.6" y="571.96" width="35.34" height="175.31"/>
    <rect class="st2" x="392.9" y="571.96" width="12.74" height="174.4"/>
    <rect class="st3" x="316.5" y="663.67" width="23.19" height="84.06"/>
    <rect class="st2" x="337.46" y="613.98" width="30.39" height="133.29"/>
    <rect class="st2" x="131" y="564.7" width="47.62" height="186.15"/>
    <rect class="st2" x="231.94" y="597.83" width="47.62" height="153.03"/>
    <rect class="st2" x="281.97" y="624.74" width="39.84" height="126.11"/>
    <rect class="st1" x="328.76" y="639.65" width="30.39" height="111.21"/>
    <rect class="st3" x="178.62" y="564.7" width="35.2" height="186.15"/>
    <rect class="st3" x="213.81" y="587.89" width="4.14" height="162.97"/>
    <rect class="st1" x="166.08" y="660.3" width="30.34" height="90.56"/>
    <rect x="153.47" y="725.71" width="37.25" height="25.14"/>
    <polygon points="190.72 725.71 153.47 725.71 158.98 717.26 185.2 717.26 190.72 725.71"/>
    <polygon class="st1" points="196.42 660.3 165.92 660.3 170.43 645.73 191.91 645.73 196.42 660.3"/>
    <rect class="st1" x="214.15" y="690.09" width="45.01" height="60.77"/>
    <polygon class="st1" points="259.16 690.09 213.9 690.09 220.61 680.31 252.46 680.31 259.16 690.09"/>
    <rect class="st1" x="222.62" y="673.28" width="22.51" height="43.53"/>
    <polygon class="st1" points="245.13 673.28 222.5 673.28 225.85 666.27 241.78 666.27 245.13 673.28"/>
    <rect x="189.9" y="701.04" width="13.04" height="49.82"/>
    <polygon points="202.94 701.04 189.9 701.04 191.83 692.66 201.01 692.66 202.94 701.04"/>
    <rect class="st1" x="295.37" y="679.89" width="30.24" height="66.47"/>
    <rect x="208.53" y="717.26" width="43.48" height="33.6"/>
    <rect x="263.85" y="719.37" width="19.02" height="27.9"/>
    <rect x="301.89" y="719.37" width="19.02" height="27.9"/>
    <rect x="282.87" y="715.15" width="19.02" height="32.13"/>
    <polygon class="st1" points="295.37 679.89 310.49 666.27 325.61 679.89 295.37 679.89"/>
    <rect class="st2" x="134.31" y="526.2" width="44.31" height="38.51"/>
    <rect class="st3" x="134.31" y="513.63" width="35.61" height="12.56"/>
    <polygon class="st2" points="277.17 575.04 237.42 586.44 237.42 597.83 277.17 597.83 277.17 575.04"/>
    <polygon class="st2" points="281.97 624.74 301.89 611.08 301.89 626.81 281.97 624.74"/>
    <rect class="st2" x="301.89" y="618.95" width="12.73" height="5.8"/>
    <rect x="337.46" y="692.66" width="25.42" height="53.69"/>
    <rect x="347.97" y="674.34" width="11.18" height="18.32"/>
    <rect x="350.85" y="664.56" width="5.18" height="9.79"/>
    <rect class="st1" x="367.85" y="653.01" width="30.81" height="93.34"/>
    <rect class="st1" x="411.31" y="657.78" width="42.17" height="88.58"/>
    <rect class="st1" x="367.85" y="645.73" width="17.21" height="7.29"/>
    <polygon class="st0" points="489.73 552.02 489.73 532.14 472.06 544.16 489.73 552.02"/>
    <polygon class="st0" points="489.73 532.14 489.73 501.73 486.21 534.53 489.73 532.14"/>
    <rect x="459.85" y="705.84" width="12.13" height="41.82"/>
    <rect x="461.32" y="694.94" width="9.2" height="10.9"/>
    <polygon points="461.32 694.94 465.92 685.95 470.52 694.94 461.32 694.94"/>
    <polygon points="465.92 689.29 466.96 690.44 465.92 669.42 465.92 689.29"/>
    <rect x="470.52" y="705.84" width="15.69" height="41.82"/>
    <rect x="470.52" y="694.94" width="14.23" height="10.9"/>
    <polygon points="475.54 694.94 480.14 685.95 484.75 694.94 475.54 694.94"/>
    <polygon points="480.14 689.29 481.19 690.44 480.14 669.42 480.14 689.29"/>
    <path d="M465.92,685.95"/>
    <polygon class="st1" points="480.14 685.95 465.92 685.95 470.52 694.94 484.75 694.94 480.14 685.95"/>
    <rect x="387.54" y="702.07" width="57.78" height="48.79"/>
    <rect x="514.68" y="664.56" width="44.5" height="83.1"/>
    <polygon points="521.53 664.56 552.83 664.56 536.93 642.33 521.53 664.56"/>
    <path class="st0" d="M548.69,448.2s-3.93,17.79-8.5,46.93h39.25c-4.57-29.14-8.5-46.93-8.5-46.93h-22.25Z"/>
    <rect class="st1" x="559.18" y="564.7" width="37.95" height="183.02"/>
    <polygon points="559.18 564.7 597.14 575.04 597.14 564.7 559.18 564.7"/>
    <rect class="st3" x="606.18" y="584.84" width="29.83" height="162.43"/>
    <rect class="st1" x="621.1" y="607.35" width="33.55" height="140.37"/>
    <rect class="st3" x="665.37" y="594.64" width="42.91" height="151.71"/>
    <rect x="637.87" y="630.25" width="36.35" height="117.48"/>
    <rect x="628.09" y="664.56" width="9.79" height="83.16"/>
    <rect x="578.16" y="692.66" width="38.3" height="58.19"/>
    <rect class="st3" x="674.22" y="587.89" width="25.25" height="15.43"/>
    <rect class="st1" x="695.8" y="642.33" width="41.65" height="105.39"/>
    <rect class="st1" x="745.85" y="630.25" width="53.44" height="117.48"/>
    <rect class="st1" x="806.99" y="618.95" width="44.14" height="128.78"/>
    <rect x="684.12" y="726.46" width="149.59" height="21.26"/>
    <g>
      <path class="st1" d="M697.16,732.25h-.36c-1.58,0-2.87,1.28-2.87,2.87v5.92h6.09v-5.92c0-1.58-1.28-2.87-2.86-2.87Z"/>
      <path class="st1" d="M706.95,732.25h-.36c-1.58,0-2.87,1.28-2.87,2.87v5.92h6.09v-5.92c0-1.58-1.28-2.87-2.86-2.87Z"/>
      <path class="st1" d="M716.74,732.25h-.36c-1.58,0-2.87,1.28-2.87,2.87v5.92h6.09v-5.92c0-1.58-1.28-2.87-2.86-2.87Z"/>
      <path class="st1" d="M726.54,732.25h-.36c-1.58,0-2.87,1.28-2.87,2.87v5.92h6.09v-5.92c0-1.58-1.28-2.87-2.86-2.87Z"/>
      <path class="st1" d="M736.33,732.25h-.36c-1.58,0-2.87,1.28-2.87,2.87v5.92h6.09v-5.92c0-1.58-1.28-2.87-2.86-2.87Z"/>
      <path class="st1" d="M746.12,732.25h-.36c-1.58,0-2.87,1.28-2.87,2.87v5.92h6.09v-5.92c0-1.58-1.28-2.87-2.86-2.87Z"/>
      <path class="st1" d="M755.91,732.25h-.36c-1.58,0-2.86,1.28-2.86,2.87v5.92h6.09v-5.92c0-1.58-1.28-2.87-2.87-2.87Z"/>
      <path class="st1" d="M765.71,732.25h-.36c-1.58,0-2.87,1.28-2.87,2.87v5.92h6.09v-5.92c0-1.58-1.28-2.87-2.86-2.87Z"/>
      <path class="st1" d="M775.5,732.25h-.36c-1.58,0-2.87,1.28-2.87,2.87v5.92h6.09v-5.92c0-1.58-1.28-2.87-2.86-2.87Z"/>
      <path class="st1" d="M785.29,732.25h-.36c-1.58,0-2.87,1.28-2.87,2.87v5.92h6.09v-5.92c0-1.58-1.28-2.87-2.86-2.87Z"/>
      <path class="st1" d="M795.08,732.25h-.36c-1.58,0-2.87,1.28-2.87,2.87v5.92h6.09v-5.92c0-1.58-1.28-2.87-2.86-2.87Z"/>
      <path class="st1" d="M804.88,732.25h-.36c-1.58,0-2.87,1.28-2.87,2.87v5.92h6.09v-5.92c0-1.58-1.28-2.87-2.86-2.87Z"/>
      <path class="st1" d="M814.67,732.25h-.36c-1.58,0-2.87,1.28-2.87,2.87v5.92h6.09v-5.92c0-1.58-1.28-2.87-2.86-2.87Z"/>
    </g>
    <rect x="730.45" y="690.07" width="50.42" height="36.97"/>
    <rect class="st1" x="810.41" y="607.35" width="37.29" height="11.6"/>
    <rect class="st1" x="814.91" y="587.89" width="28.29" height="19.46"/>
    <rect class="st1" x="819.2" y="577.33" width="19.72" height="10.56"/>
    <rect x="824.49" y="577.33" width="2.74" height="149.41"/>
    <rect class="st1" x="872.29" y="638.58" width="37.41" height="109.14"/>
    <rect class="st1" x="875.19" y="628.75" width="31.61" height="9.83"/>
    <rect x="862.97" y="654.15" width="32.07" height="93.57"/>
    <rect x="865.46" y="645.73" width="27.1" height="8.43"/>
    <rect x="827.17" y="654.15" width="32.07" height="93.57"/>
    <rect x="829.65" y="645.73" width="27.1" height="8.43"/>
    <rect class="st1" x="879" y="612.26" width="23.98" height="16.49"/>
    <rect class="st1" x="882.64" y="603.32" width="16.71" height="8.95"/>
    <rect x="887.13" y="603.32" width="2.32" height="126.63"/>
    <rect x="112.04" y="724.62" width="32.43" height="26.23"/>
    <rect class="st1" x="917.65" y="656.21" width="43.72" height="91.06"/>
    <rect x="948.61" y="687.8" width="30.61" height="63.06"/>
    <polygon class="st3" points="995.3 518.13 1002.68 569.87 987.62 569.87 995.3 518.13"/>
    <rect class="st3" x="992.87" y="570.11" width="4.57" height="63.55"/>
    <rect x="997.43" y="692.66" width="56.53" height="56.53"/>
  </g>
  <path d="M86.41,750.38l32.1-1.21,32.1-.92,64.2-1.81,64.2-1.33c21.4-.44,42.8-.66,64.2-1l32.1-.47,32.1-.3,64.2-.57,128.4-.42,128.4.44,64.2.57,32.1.31,32.1.47c21.4.34,42.8.55,64.2,1l64.2,1.33,64.2,1.8,32.1.91,32.1,1.21v.95l-513.59.47-513.59-.47v-.95Z"/>
</svg>