<?xml version="1.0" encoding="UTF-8"?>
<svg id="Layer_1" xmlns="http://www.w3.org/2000/svg" version="1.1" viewBox="0 0 1200 1200">
  <!-- Generator: Adobe Illustrator 30.1.0, SVG Export Plug-In . SVG Version: 2.1.1 Build 136)  -->
  <defs>
    <style>
      .st0 {
        fill: #6d6e71;
      }

      .st1 {
        fill: #808285;
      }

      .st2 {
        fill: #a7a9ac;
      }
    </style>
  </defs>
  <path class="st2" d="M1100,739.7v-98.91s-54.92-31.11-67.28-37.4c-12.36-6.28-20.19-5.87-25.96-7.93s-11.95-2.06-20.19,0-55.22,33.38-58.11,35.03-9.48,3.3-12.36,2.89c-2.89-.41-7.83-2.06-9.89-3.71s-8.65-1.65-13.19,1.65c-4.53,3.3-4.12,7.83-8.24,8.65-4.12.82-10.72.82-14.01,5.36-1.65,1.24-11.13-.41-13.6-.41s-8.65,4.95-10.72,6.59c-2.06,1.65-15.25-2.06-20.6,3.3-3.71.41-8.24-7.01-16.48-.41-5.77,0-9.48-.41-15.66,2.06-6.18,2.47-7.01-3.71-9.89-.82s-3.71,4.12-7.01,3.71-22.67-4.53-29.26-.82c-4.95-1.24-31.73-.41-31.73-.41,0,0-51.51-2.47-56.46,2.47-4.95,4.95-12.36,5.05-16.48,6.23-4.12,1.18-21.12-3.66-33.23,0-12.11,3.66-47.03-6.23-51-6.23s-24.57,5.05-27.04,6.23c-2.47,1.18-86.54-5.41-100.55-4.59-14.01.82-18.96,8.24-29.26,10.72s-8.65-6.49-22.67-6.13c-14.01.36-44.1,40.75-61.4,39.51-17.31-1.24-28.43-12.36-40.8-7.42-12.36,4.95-50.69,30.49-69.23,31.32-18.54.83-32.14,9.48-32.14,9.48h924.46Z"/>
  <polygon class="st2" points="448.33 563.05 439.66 563.05 439.66 556.96 408.26 556.96 408.26 563.05 399.59 563.05 399.59 569.14 387.26 569.14 387.26 739.7 460.67 739.7 460.67 569.14 448.33 569.14 448.33 563.05"/>
  <rect class="st2" x="265.51" y="594.44" width="26.19" height="145.26"/>
  <polygon class="st2" points="227.27 610.09 214.17 610.09 214.17 739.7 227.27 739.7 240.36 739.7 253.45 739.7 253.45 574.52 227.27 574.52 227.27 610.09"/>
  <path class="st2" d="M346.46,578.02h11.81v8.55h19.44v-30.37c0-.62.37-1.13.82-1.13s.82.5.82,1.13v30.37h0v153.13h-63.36v-170.8c25.6,0,30.47,9.12,30.47,9.12Z"/>
  <polygon class="st2" points="688.22 555.08 688.22 578.69 686.46 578.69 686.46 582.26 682.96 582.26 682.96 587.17 677.15 587.17 677.15 590.74 667.9 590.74 664.33 594.44 664.33 739.7 689.97 739.7 689.97 594.44 689.97 587.17 689.97 582.26 689.97 578.69 689.97 555.08 688.22 555.08"/>
  <polygon class="st2" points="195.48 571.33 195.48 560.66 155.78 560.66 155.78 571.33 155.78 739.7 207.71 739.7 207.71 571.33 195.48 571.33"/>
  <polygon class="st1" points="829.42 720.25 829.42 683.28 813.97 683.28 813.97 675.26 811.09 675.26 811.09 673.35 816.86 673.35 816.86 671.96 808.75 671.96 808.75 659.23 807.99 659.23 807.99 671.96 799.68 671.96 799.68 666.64 798.92 666.64 798.92 671.96 794.36 671.96 794.36 649.83 793.78 649.83 793.78 671.96 785.76 671.96 785.76 673.35 791.53 673.35 791.53 675.26 788.65 675.26 788.65 683.28 773.21 683.28 773.21 739.7 826.13 739.7 829.42 739.7 839.34 739.7 839.34 720.25 829.42 720.25"/>
  <polygon class="st1" points="158.58 566.78 158.58 545.9 157.71 545.9 157.71 543.19 155.68 543.19 155.68 542.03 152.59 542.03 152.59 540.29 150.85 540.29 150.85 545.9 146.4 545.9 146.4 542.61 143.11 542.61 143.11 539.52 146.01 539.52 146.01 537.49 106.96 533.14 106.96 545.9 100 545.9 100 739.7 160.75 739.7 160.75 566.78 158.58 566.78"/>
  <polygon class="st1" points="185.22 599.9 185.22 597.12 178.32 597.12 178.32 599.9 164.26 599.9 164.26 739.7 214.17 739.7 214.17 599.9 185.22 599.9"/>
  <polygon class="st1" points="277.06 591.24 277.06 588.36 274.17 588.36 274.17 583.62 272.53 583.62 272.53 578.26 267.99 578.26 261.81 571.05 247.8 571.05 242.85 578.26 238.32 578.26 238.32 583.62 236.67 583.62 236.67 588.36 233.79 588.36 233.79 591.24 232.24 591.24 232.24 739.7 278.61 739.7 278.61 591.24 277.06 591.24"/>
  <polygon class="st1" points="349.8 587.23 344.85 582.38 344.85 557.04 337.69 557.04 337.69 554.88 334.34 554.88 334.34 557.04 296.12 557.04 296.12 559.72 297.77 559.72 297.77 591.66 289.32 591.66 289.32 739.7 355.88 739.7 355.88 587.23 349.8 587.23"/>
  <polygon class="st1" points="517.48 608.11 517.48 603.2 523.25 603.2 572.5 652.88 572.5 739.7 517.48 739.7 517.48 608.11"/>
  <polygon class="st1" points="584.22 592.57 616.43 592.57 620.23 595.07 620.23 739.7 584.22 739.7 584.22 592.57"/>
  <path class="st1" d="M675.54,619.25v-8.99h-2.01v-29.83h-1.34v.94h-5.92v-3.17l-10.3-10.3v-1.64l.98-.97-1.87-1.87-1.87,1.87.98.97v1.64l-10.3,10.3v3.17h-5.92v-.94h-1.34v29.83h-2.01v8.99h-1.6v120.45h44.14v-120.45h-1.61ZM644.04,584.62h-5.8v-2.14h5.8v2.14ZM671.91,584.62h-5.8v-2.14h5.8v2.14Z"/>
  <path class="st1" d="M691.83,610.72v-4.33c0-1.54.46-3.09,1.54-3.09v-6.95s3.71-.77,6.18-.77v-2.32h2.16v-8.5h9.84l3.04,3.04v2.01h-2.83v4.53h8.14v-2.37l4.22,2.78v10.82h1.65v134.14h-33.95v-128.98Z"/>
  <path d="M817.92,707.56v-13.75c1.41.73,2.22,1.2,2.26,1.22.2.11.41.17.62.17.42,0,.84-.22,1.07-.61.34-.59.15-1.35-.44-1.69-.84-.49-20.92-12.07-40.8-12.07s-37.58,9.99-38.32,10.42c-.4.23-.6.65-.6,1.07h-2.7c-7.36,0-13.42,5.6-14.15,12.78h4.46v2.47h-8.65v32.14h105.09v-32.14h-7.83ZM751.72,692.31h-6.14c1.42-.71,3.52-1.7,6.14-2.77v2.77ZM756.9,692.31h-3.94v-3.26c1.22-.48,2.54-.97,3.94-1.44v4.7ZM762.46,692.31h-4.33v-5.12c1.38-.45,2.82-.89,4.33-1.29v6.41ZM768.67,692.31h-4.97v-6.74c1.6-.41,3.26-.78,4.97-1.1v7.84ZM774.44,692.31h-4.53v-8.07c1.48-.25,3-.46,4.53-.62v8.69ZM781.24,692.31h-5.56v-8.8c1.63-.14,3.28-.22,4.95-.22.21,0,.41,0,.62.01v9.01ZM788.04,692.31h-5.56v-8.98c1.86.07,3.72.24,5.56.49v8.49ZM793.81,692.31h-4.53v-8.3c1.53.24,3.04.53,4.53.86v7.44ZM800.02,692.31h-4.97v-7.16c1.7.41,3.36.86,4.97,1.35v5.81ZM805.58,692.31h-4.33v-5.42c1.5.48,2.95.98,4.33,1.49v3.93ZM806.82,692.31h0v-3.47c3.15,1.21,5.91,2.43,8.09,3.47h-8.09Z"/>
  <path class="st1" d="M1060.72,632.14h-8.19v-2.32h-4.79v-1.85h-6.26v1.85h-2.09v-1.85h-4.17v1.85h-4.79v2.32h-8.19v107.56h2.58v-3.09h2.65v3.09h28.02v-3.09h3.61v3.09h2.58v-107.56h-.95ZM1055.49,720.54v-4.33h3.61v4.33h-3.61ZM1059.09,723.01v4.33h-3.61v-4.33h3.61ZM1055.49,713.74v-4.33h3.61v4.33h-3.61ZM1055.49,706.94v-4.33h3.61v4.33h-3.61ZM1055.49,700.14v-4.33h3.61v4.33h-3.61ZM1055.49,693.34v-4.33h3.61v4.33h-3.61ZM1055.49,686.54v-4.33h3.61v4.33h-3.61ZM1055.49,679.74v-4.33h3.61v4.33h-3.61ZM1055.49,672.94v-4.33h3.61v4.33h-3.61ZM1055.49,666.14v-4.33h3.61v4.33h-3.61ZM1055.49,659.34v-4.33h3.61v4.33h-3.61ZM1055.49,652.54v-4.33h3.61v4.33h-3.61ZM1055.49,645.74v-4.33h3.61v4.33h-3.61ZM1055.49,638.94v-4.33h3.61v4.33h-3.61ZM1024.81,634.61h2.65v4.33h-2.65v-4.33ZM1024.81,641.41h2.65v4.33h-2.65v-4.33ZM1024.81,648.21h2.65v4.33h-2.65v-4.33ZM1024.81,655.01h2.65v4.33h-2.65v-4.33ZM1024.81,661.81h2.65v4.33h-2.65v-4.33ZM1024.81,668.61h2.65v4.33h-2.65v-4.33ZM1024.81,675.41h2.65v4.33h-2.65v-4.33ZM1024.81,682.21h2.65v4.33h-2.65v-4.33ZM1024.81,689.01h2.65v4.33h-2.65v-4.33ZM1024.81,695.81h2.65v4.33h-2.65v-4.33ZM1024.81,702.61h2.65v4.33h-2.65v-4.33ZM1024.81,709.41h2.65v4.33h-2.65v-4.33ZM1024.81,716.21h2.65v4.33h-2.65v-4.33ZM1024.81,723.01h2.65v4.33h-2.65v-4.33ZM1024.81,734.14v-4.33h2.65v4.33h-2.65ZM1055.49,734.14v-4.33h3.61v4.33h-3.61Z"/>
  <path class="st1" d="M964.3,662.53v-1.85h2.11v-2.47h-8.45s.62-7.21-4.53-7.21v-3.5h-5.77v3.5c-5.15,0-4.53,7.21-4.53,7.21h-8.45v2.47h2.11v1.85h-5.1v2.06h3.55v75.11h30.6v-75.11h3.55v-2.06h-5.1Z"/>
  <polygon class="st1" points="929 664.9 929 663.67 927.22 663.67 927.22 659.34 927.22 649.76 925.21 649.76 925.21 656.04 921.04 656.04 921.04 659.34 918.57 659.34 918.57 654.55 905.59 654.55 905.59 659.34 903.11 659.34 903.11 656.04 898.94 656.04 898.94 649.76 896.93 649.76 896.93 659.34 896.93 663.67 895.15 663.67 895.15 664.9 896.93 664.9 896.93 667.53 895.15 667.53 895.15 668.77 896.93 668.77 896.93 671.39 895.15 671.39 895.15 672.63 896.93 672.63 896.93 675.26 895.15 675.26 895.15 676.49 896.93 676.49 896.93 679.12 895.15 679.12 895.15 680.36 896.93 680.36 896.93 682.99 895.15 682.99 895.15 684.22 896.93 684.22 896.93 686.85 895.15 686.85 895.15 688.09 896.93 688.09 896.93 690.71 895.15 690.71 895.15 691.95 896.93 691.95 896.93 694.58 895.15 694.58 895.15 695.81 896.93 695.81 896.93 698.44 895.15 698.44 895.15 699.68 896.93 699.68 896.93 702.3 895.15 702.3 895.15 703.54 896.93 703.54 896.93 706.17 895.15 706.17 895.15 707.4 896.93 707.4 896.93 710.03 895.15 710.03 895.15 711.27 896.93 711.27 896.93 713.89 895.15 713.89 895.15 715.13 896.93 715.13 896.93 717.76 895.15 717.76 895.15 718.99 896.93 718.99 896.93 721.62 895.15 721.62 895.15 722.86 896.93 722.86 896.93 725.48 895.15 725.48 895.15 726.72 896.93 726.72 896.93 729.35 895.15 729.35 895.15 730.58 896.93 730.58 896.93 733.21 895.15 733.21 895.15 734.45 896.93 734.45 896.93 737.07 895.15 737.07 895.15 738.31 896.93 738.31 896.93 739.7 927.22 739.7 927.22 738.31 929 738.31 929 737.07 927.22 737.07 927.22 734.45 929 734.45 929 733.21 927.22 733.21 927.22 730.58 929 730.58 929 729.35 927.22 729.35 927.22 726.72 929 726.72 929 725.48 927.22 725.48 927.22 722.86 929 722.86 929 721.62 927.22 721.62 927.22 718.99 929 718.99 929 717.76 927.22 717.76 927.22 715.13 929 715.13 929 713.89 927.22 713.89 927.22 711.27 929 711.27 929 710.03 927.22 710.03 927.22 707.4 929 707.4 929 706.17 927.22 706.17 927.22 703.54 929 703.54 929 702.3 927.22 702.3 927.22 699.68 929 699.68 929 698.44 927.22 698.44 927.22 695.81 929 695.81 929 694.58 927.22 694.58 927.22 691.95 929 691.95 929 690.71 927.22 690.71 927.22 688.09 929 688.09 929 686.85 927.22 686.85 927.22 684.22 929 684.22 929 682.99 927.22 682.99 927.22 680.36 929 680.36 929 679.12 927.22 679.12 927.22 676.49 929 676.49 929 675.26 927.22 675.26 927.22 672.63 929 672.63 929 671.39 927.22 671.39 927.22 668.77 929 668.77 929 667.53 927.22 667.53 927.22 664.9 929 664.9"/>
  <polygon class="st1" points="890.54 671.39 890.54 669.13 888.38 669.13 888.38 660.47 881.89 660.47 881.89 658.21 875.5 658.21 875.5 654.81 875.5 649.04 873.03 649.04 873.03 654.81 868.8 654.81 868.8 658.21 862.11 658.21 862.11 660.47 855.62 660.47 855.62 669.13 853.45 669.13 853.45 671.39 855.62 671.39 855.62 673.04 853.45 673.04 853.45 675.31 855.62 675.31 855.62 676.96 853.45 676.96 853.45 679.22 855.62 679.22 855.62 680.87 853.45 680.87 853.45 683.14 855.62 683.14 855.62 684.79 853.45 684.79 853.45 687.05 855.62 687.05 855.62 688.7 853.45 688.7 853.45 690.97 855.62 690.97 855.62 692.62 853.45 692.62 853.45 694.88 855.62 694.88 855.62 696.69 853.45 696.69 853.45 698.95 855.62 698.95 855.62 700.76 853.45 700.76 853.45 703.02 855.62 703.02 855.62 704.83 853.45 704.83 853.45 707.09 855.62 707.09 855.62 708.9 853.45 708.9 853.45 711.16 855.62 711.16 855.62 712.97 853.45 712.97 853.45 715.23 855.62 715.23 855.62 717.04 853.45 717.04 853.45 719.3 855.62 719.3 855.62 721.1 853.45 721.1 853.45 723.37 855.62 723.37 855.62 725.17 853.45 725.17 853.45 727.44 855.62 727.44 855.62 729.24 853.45 729.24 853.45 731.51 855.62 731.51 855.62 733.31 853.45 733.31 853.45 735.58 855.62 735.58 855.62 737.43 853.45 737.43 853.45 739.7 855.62 739.7 888.38 739.7 890.54 739.7 890.54 737.43 888.38 737.43 888.38 735.58 890.54 735.58 890.54 733.31 888.38 733.31 888.38 731.51 890.54 731.51 890.54 729.24 888.38 729.24 888.38 727.44 890.54 727.44 890.54 725.17 888.38 725.17 888.38 723.37 890.54 723.37 890.54 721.1 888.38 721.1 888.38 719.3 890.54 719.3 890.54 717.04 888.38 717.04 888.38 715.23 890.54 715.23 890.54 712.97 888.38 712.97 888.38 711.16 890.54 711.16 890.54 708.9 888.38 708.9 888.38 707.09 890.54 707.09 890.54 704.83 888.38 704.83 888.38 703.02 890.54 703.02 890.54 700.76 888.38 700.76 888.38 698.95 890.54 698.95 890.54 696.69 888.38 696.69 888.38 694.88 890.54 694.88 890.54 692.62 888.38 692.62 888.38 690.97 890.54 690.97 890.54 688.7 888.38 688.7 888.38 687.05 890.54 687.05 890.54 684.79 888.38 684.79 888.38 683.14 890.54 683.14 890.54 680.87 888.38 680.87 888.38 679.22 890.54 679.22 890.54 676.96 888.38 676.96 888.38 675.31 890.54 675.31 890.54 673.04 888.38 673.04 888.38 671.39 890.54 671.39"/>
  <polygon class="st1" points="423.96 586.04 423.96 582.95 421.13 582.95 421.13 569.09 417.32 566.72 417.32 550.34 414.84 550.34 414.84 565.02 385.48 559.3 385.48 569.19 380.74 569.09 380.74 739.7 421.13 739.7 421.13 734.7 423.96 734.7 423.96 731.61 421.13 731.61 421.13 728.99 423.96 728.99 423.96 725.9 421.13 725.9 421.13 723.27 423.96 723.27 423.96 720.18 421.13 720.18 421.13 717.55 423.96 717.55 423.96 714.46 421.13 714.46 421.13 711.83 423.96 711.83 423.96 708.74 421.13 708.74 421.13 706.11 423.96 706.11 423.96 703.02 421.13 703.02 421.13 700.4 423.96 700.4 423.96 697.31 421.13 697.31 421.13 694.68 423.96 694.68 423.96 691.59 421.13 691.59 421.13 688.96 423.96 688.96 423.96 685.87 421.13 685.87 421.13 683.24 423.96 683.24 423.96 680.15 421.13 680.15 421.13 677.53 423.96 677.53 423.96 674.43 421.13 674.43 421.13 671.81 423.96 671.81 423.96 668.72 421.13 668.72 421.13 666.09 423.96 666.09 423.96 663 421.13 663 421.13 660.37 423.96 660.37 423.96 657.28 421.13 657.28 421.13 654.65 423.96 654.65 423.96 651.56 421.13 651.56 421.13 648.94 423.96 648.94 423.96 645.84 421.13 645.84 421.13 643.22 423.96 643.22 423.96 640.13 421.13 640.13 421.13 637.5 423.96 637.5 423.96 634.41 421.13 634.41 421.13 631.78 423.96 631.78 423.96 628.69 421.13 628.69 421.13 626.06 423.96 626.06 423.96 622.97 421.13 622.97 421.13 620.35 423.96 620.35 423.96 617.25 421.13 617.25 421.13 614.63 423.96 614.63 423.96 611.54 421.13 611.54 421.13 608.91 423.96 608.91 423.96 605.82 421.13 605.82 421.13 603.19 423.96 603.19 423.96 600.1 421.13 600.1 421.13 597.47 423.96 597.47 423.96 594.38 421.13 594.38 421.13 591.76 423.96 591.76 423.96 588.66 421.13 588.66 421.13 586.04 423.96 586.04"/>
  <polygon class="st1" points="505.05 546.63 501.65 546.63 497.94 546.63 497.94 545.16 497.94 540.91 495.62 540.91 495.62 543.04 493.3 543.04 493.3 545.16 482.64 545.16 482.64 546.63 476.92 546.63 476.92 739.7 501.65 739.7 501.65 551.88 505.05 551.88 505.05 546.63"/>
  <polygon points="271.51 676.6 271.51 673.76 269.08 673.76 265.07 673.76 265.07 667.99 254.76 667.99 254.76 673.76 250.75 673.76 248.33 673.76 248.33 676.6 250.75 676.6 250.75 678.86 248.33 678.86 248.33 681.7 250.75 681.7 250.75 683.96 248.33 683.96 248.33 686.8 250.75 686.8 250.75 689.06 248.33 689.06 248.33 691.9 250.75 691.9 250.75 694.16 248.33 694.16 248.33 697 250.75 697 250.75 699.26 248.33 699.26 248.33 702.1 250.75 702.1 250.75 704.36 248.33 704.36 248.33 707.2 250.75 707.2 250.75 709.46 248.33 709.46 248.33 712.3 250.75 712.3 250.75 714.56 248.33 714.56 248.33 717.4 250.75 717.4 250.75 719.66 248.33 719.66 248.33 722.5 250.75 722.5 250.75 724.76 248.33 724.76 248.33 727.6 250.75 727.6 250.75 729.86 248.33 729.86 248.33 732.7 250.75 732.7 250.75 734.96 248.33 734.96 248.33 737.8 250.75 737.8 250.75 739.7 269.08 739.7 269.08 737.8 271.51 737.8 271.51 734.96 269.08 734.96 269.08 732.7 271.51 732.7 271.51 729.86 269.08 729.86 269.08 727.6 271.51 727.6 271.51 724.76 269.08 724.76 269.08 722.5 271.51 722.5 271.51 719.66 269.08 719.66 269.08 717.4 271.51 717.4 271.51 714.56 269.08 714.56 269.08 712.3 271.51 712.3 271.51 709.46 269.08 709.46 269.08 707.2 271.51 707.2 271.51 704.36 269.08 704.36 269.08 702.1 271.51 702.1 271.51 699.26 269.08 699.26 269.08 697 271.51 697 271.51 694.16 269.08 694.16 269.08 691.9 271.51 691.9 271.51 689.06 269.08 689.06 269.08 686.8 271.51 686.8 271.51 683.96 269.08 683.96 269.08 681.7 271.51 681.7 271.51 678.86 269.08 678.86 269.08 676.6 271.51 676.6"/>
  <polygon points="316.81 692.31 316.81 689.86 310.78 689.86 310.78 692.31 303.83 692.31 303.83 687.42 293.32 687.42 293.32 692.31 289.61 692.31 289.61 689.86 282.35 689.86 282.35 692.31 276.21 692.31 276.21 739.7 321.34 739.7 321.34 692.31 316.81 692.31"/>
  <polygon points="356.91 648.42 356.91 646.15 360 646.15 360 642.34 333.73 642.34 333.73 646.15 336.82 646.15 336.82 648.42 329.25 648.42 329.25 739.7 364.48 739.7 364.48 648.42 356.91 648.42"/>
  <polygon points="430.37 703.85 430.37 696.84 425.02 696.84 425.02 689.84 420.79 689.84 420.79 685.3 412.04 685.3 412.04 677.06 408.64 677.06 408.64 674.38 406.06 674.38 406.06 677.06 403.64 677.06 403.64 674.38 401.06 674.38 401.06 677.06 398.64 677.06 398.64 674.38 396.07 674.38 396.07 677.06 392.67 677.06 392.67 685.3 383.91 685.3 383.91 689.84 379.68 689.84 379.68 696.84 374.33 696.84 374.33 703.85 370.67 703.85 370.67 739.7 434.03 739.7 434.03 703.85 430.37 703.85"/>
  <path d="M521.64,690.01c-12.46,0-22.56,9.83-22.56,21.96h2.68v27.74h39.77v-27.74h2.68c0-12.13-10.1-21.96-22.56-21.96Z"/>
  <polygon points="709.65 693.13 709.65 690.7 705.74 690.7 697.91 690.7 697.91 685.1 680.6 685.1 680.6 690.7 674.01 690.7 674.01 693.13 674.01 709.62 674.01 724.69 674.01 739.7 705.74 739.7 705.74 724.69 709.65 724.69 709.65 709.62 705.74 709.62 705.74 693.13 709.65 693.13"/>
  <polygon points="137.6 625.76 137.6 620.79 132.72 620.79 132.72 616.81 107.96 616.81 107.96 620.79 103.08 620.79 103.08 625.76 100.96 625.76 100.96 739.7 139.72 739.7 139.72 625.76 137.6 625.76"/>
  <path d="M236.78,637.64v-2.28s-13.88-2.7-19.85,1.71h-4.24v4.55h-1.93v18.66h-2.89v26.47h-3.47v26.47h-4.62v26.47h42.2v-102.06h-5.2Z"/>
  <polygon points="178.36 627.57 178.36 621.31 168.69 621.31 168.69 627.57 155.78 627.57 155.78 739.7 191.26 739.7 191.26 627.57 178.36 627.57"/>
  <path d="M493.18,497.37v-1.17l.7-.52v-1.74s-11.67-4.49-15.76-5.74c-4.09-1.25-4.21-2.63-4.15-3.19,1.8-.94,3.37-2.38,3.37-2.38,0,0-2.69-1.13-3.25-1.13,0-2.35-2.41-2.16-2.41-2.16v-1.59h-.88v1.59h-2.79c0-1.71-.51-2.5-1.04-2.87l-1.23-16.17-1.23,16.17c-.54.37-1.04,1.16-1.04,2.87h-2.79v-1.59h-.88v1.59s-2.41-.19-2.41,2.16c-.56,0-3.25,1.13-3.25,1.13,0,0,1.58,1.44,3.37,2.38.06.56-.06,1.94-4.15,3.19-4.09,1.25-15.76,5.74-15.76,5.74v1.74l.7.52v1.17l-5.9,1.97v.66c0,.38,2.79,1.71,8.45,1.71.78.79,1.11,1.77,1.11,1.77v2.07l-3.06,1.88s3.06,2.63,6.78,2.63h4.92s6.42,46.63,6.42,50.61.38,34.68-1.52,48.14c-1.48,10.54-7.2,58.7-9.6,79.06-2.78.89-4.42,1.97-4.42,3.14,0,1.07,1.36,2.06,3.71,2.9-.23,1.98-.36,3.1-.36,3.1l-5.05,42.71h4.74l3.03-30.64s.63-5.83,1.53-14.11c3.03.64,6.79,1.11,10.98,1.34v43.41h11.37v-8.98h14.65l.89,8.98h4.74l-5.05-42.71s-.13-1.12-.36-3.1c2.35-.84,3.71-1.83,3.71-2.9,0-1.17-1.64-2.25-4.42-3.14-2.4-20.36-8.11-68.52-9.6-79.06-1.9-13.46-1.52-44.16-1.52-48.14s6.42-50.61,6.42-50.61h4.92c3.71,0,6.78-2.63,6.78-2.63l-3.06-1.88v-2.07s.33-.98,1.11-1.77c5.66,0,8.45-1.33,8.45-1.71v-.66l-5.9-1.97ZM475.66,635.57h-4.23v-15.66h2.37c.68,6.47,1.36,11.92,1.86,15.66ZM476.3,640.13c.17,1.18.64,5.27,1.28,10.9h-6.14v-13.09h4.56c.13.93.23,1.68.31,2.19ZM471.43,668.87h8.12c.48,4.34.97,8.79,1.44,13.09h-9.56v-13.09ZM471.43,666.49v-13.09h6.41c.44,3.91.94,8.4,1.45,13.09h-7.86ZM454.37,510.05h5.69v125.52h-4.23c1.39-10.42,4.23-34.15,4.23-55.94,0-26.18-3.98-62.57-5.69-69.58ZM449.96,686.86c2.06-18.91,4.77-43.51,5.23-46.72.07-.51.18-1.26.31-2.19h4.56v47.75c-3.79.2-7.23.61-10.1,1.16ZM483.94,709.06l.38,3.82h-12.89v-13.09h11.5c.61,5.61,1.01,9.26,1.01,9.26ZM471.43,728.35v-13.09h13.12l1.3,13.09h-14.42ZM482.68,697.42h-11.25v-1.13c4.19-.23,7.95-.7,10.98-1.34.09.85.18,1.67.27,2.47ZM471.43,685.7v-1.36h9.82c.09.85.18,1.69.27,2.52-2.86-.55-6.3-.96-10.09-1.16ZM471.43,579.63c0,13.02,1.02,26.74,2.13,37.9h-2.13v-107.48h5.69c-1.71,7.01-5.69,43.4-5.69,69.58Z"/>
  <path d="M613.65,675.18v-2.36h-15.51v2.51c-2.03.04-4,.1-5.89.15v-4.04h-15.51v4.68c-5.19.27-8.31.49-8.31.49v63.09h86.65v-63.09s-19.01-1.36-41.42-1.44Z"/>
  <polygon points="1011.75 697.7 1011.75 695.34 1030.1 695.34 1030.1 690.86 1069.74 690.86 1069.74 688.13 1088.53 688.13 1088.53 690.86 1093.67 690.86 1093.67 695.34 1093.67 696.33 1093.67 697.7 1093.67 700.06 1093.67 739.7 1008.47 739.7 1008.47 697.7 1011.75 697.7"/>
  <polygon points="977.62 704.35 977.62 702.12 970.6 702.12 969.08 702.12 969.08 704.35 961.78 704.35 961.78 702.12 954.77 702.12 953.25 702.12 953.25 704.35 942.76 704.35 942.76 702.12 937.27 702.12 936.07 702.12 936.07 704.35 922.29 704.35 922.29 739.7 1008.47 739.7 1008.47 704.35 977.62 704.35"/>
  <polygon points="901.64 700.12 901.64 695.64 890.76 695.64 890.76 700.12 888.32 700.12 883.81 706.48 866.78 706.48 866.78 715.82 831.32 715.82 831.32 739.7 866.78 739.7 866.78 739.51 908.58 739.51 908.58 706.48 904.08 700.12 901.64 700.12"/>
  <g>
    <rect class="st0" x="100" y="721.1" width="1000" height="16.43"/>
    <rect x="100" y="723.27" width="1000" height="16.43"/>
  </g>
  <path class="st2" d="M944.6,718.02v-3.61h-4.65l-8.26,7.23h-3.1v-5.16h-3.1v5.68h-2.58v4.91h-10.84v-5.42h-11.36v-7.23h-6.71v7.23h-13.94c-7.74,0-10.84,10.33-10.84,10.33h-3.61c0,2.07,6.71,7.74,6.71,7.74h86.22v-7.74l-13.94-13.94ZM922.4,734.54h-29.94v-4.13h29.94v4.13Z"/>
</svg>