<svg width="48" height="120" viewBox="0 0 48 120" fill="none" xmlns="http://www.w3.org/2000/svg">
<path d="M27.4133 5.691C27.2133 1.051 34.2533 -2.45567 36.7333 2.18433C36.52 5.99767 35.28 9.79766 36.0133 13.6377C37.6933 16.5843 41.4933 17.7577 43.0267 20.7843C46.3333 33.6777 47.3333 47.0777 47.2933 60.3577C46.84 65.531 47.08 71.6643 42.92 75.491C37.9733 80.3177 30.3867 79.5177 24.08 80.5843C25 92.1443 26.0533 103.718 26.5467 115.291C22.9867 117.411 18.8133 118.478 14.8267 119.598C14.5333 118.638 13.9333 116.691 13.64 115.718C15.9867 114.798 18.3333 113.864 20.68 112.944C19.8 100.291 19.6267 87.5977 18.8 74.9443C16.44 74.9843 14.0933 74.9443 11.7733 75.211C10.1467 76.931 10.8 79.5577 10.5333 81.7043C10.5733 92.251 10.9067 102.798 11.0133 113.344C7.82667 114.518 4.68 115.744 1.50667 116.918C1.13333 116.104 0.373333 114.464 0 113.638C1.94667 112.918 3.90667 112.184 5.88 111.464C5.48 99.731 5.46667 87.9977 5.54667 76.251C5.25333 73.371 7.90667 71.5577 9.4 69.4643C12.8933 69.4643 16.3733 69.4777 19.8667 69.5177C23.0533 61.3577 26.12 53.0377 26.9333 44.2377C27.9333 34.7843 32.3333 25.9577 32.4667 16.3977C30.9867 12.691 26.16 10.291 27.4133 5.691Z" fill="black"/>
</svg>
