<svg width="64" height="87" viewBox="0 0 64 87" fill="none" xmlns="http://www.w3.org/2000/svg">
<path d="M53.16 2.03115C55.3467 -0.675516 61.1467 -0.983514 62.2133 2.99115C63.7333 6.78982 60 9.34982 58.3333 12.2578C59.5213 14.5632 61.48 16.3365 63.3067 18.1765C63.5867 27.7112 64.8667 37.5098 62.1067 46.8178C61.2413 50.2045 60.3467 53.5912 59.48 57.0032C56.04 56.6698 52.5867 56.4845 49.1467 56.4565C45.5867 64.8845 43.96 73.9245 41.9467 82.7898C41.7467 85.0032 38.92 85.2578 37.4933 84.0032C34.9867 82.4845 32.7467 80.5912 30.4533 78.8032C30.5333 81.4845 30.5747 84.1898 30.6 86.8965C27.0933 86.8565 23.5867 86.8712 20.0933 86.8178C20.5067 83.1765 24.72 84.3498 27.2933 83.6578C27.3467 81.7498 27.4 79.8565 27.48 77.9912C23.44 75.8312 19.4267 73.6045 15.4267 71.3778C12.4933 72.8845 9.54666 74.3912 6.62666 75.9245C4.34666 72.9498 2.02667 70.0165 0 66.8965C3.82667 64.9245 6.09333 69.3365 8.81333 71.2045C10.32 70.4165 11.84 69.6578 13.3733 68.9098C12.2933 66.7898 11.2533 64.6578 10.2533 62.5378C13 56.6445 15.8 49.9378 21.5213 46.3645C27.9867 44.4698 34.908 45.8312 41.56 45.4165C44.0533 41.2965 46.64 37.1112 47.5467 32.3112C48.3467 28.1112 51.16 24.5632 51.5333 20.2578C51.8133 17.1645 52.6533 14.1898 53.8133 11.3365C52.48 8.41648 51.5747 5.05782 53.16 2.03115Z" fill="black"/>
</svg>
