<svg width="33" height="93" viewBox="0 0 33 93" fill="none" xmlns="http://www.w3.org/2000/svg">
<path d="M11.4306 5.42447C11.3906 1.90447 14.604 -1.06887 18.1106 0.371132C21.004 2.7578 21.9106 6.62447 23.8706 9.71913C26.6973 14.9178 31.8573 19.2645 31.9373 25.6125C32.5773 34.5445 32.084 43.5445 31.4973 52.4645C31.724 55.7858 28.6293 57.5711 26.6293 59.6778C21.4026 59.5845 16.1773 59.5845 10.9626 59.4925C11.604 70.3858 14.0693 81.1445 13.4173 92.1191C10.204 92.0645 7.00396 92.0525 3.81729 92.0525C3.79062 91.4925 3.75062 90.3578 3.73596 89.7978C4.84396 89.7725 7.06929 89.7445 8.17729 89.7191C8.40262 87.8645 9.13729 85.8925 8.13729 84.1445C4.53729 76.3858 3.09729 67.9045 0.682623 59.7578C0.323956 56.9711 -1.03738 53.3045 1.52396 51.1978C5.89729 49.5058 10.7506 50.9458 15.3106 50.3445C19.844 47.9845 18.7106 42.0645 18.2173 37.9178C14.736 32.9178 10.4173 28.5178 6.73596 23.6378C7.40262 23.0778 8.72396 21.9711 9.37729 21.4111C11.364 24.0111 13.564 26.4525 16.0306 28.6378C19.4306 25.1978 19.9906 19.9311 19.6293 15.3445C16.6173 12.2911 13.1106 9.4778 11.4306 5.42447Z" fill="black"/>
</svg>
