<svg width="51" height="86" viewBox="0 0 51 86" fill="none" xmlns="http://www.w3.org/2000/svg">
<path d="M42.7333 1.08676C45.04 -0.953238 48.32 0.300093 50.7467 1.43343C50.6933 6.42009 47.6 10.1534 44.7333 13.8734C42.8267 26.4734 42.9333 39.3668 40.9467 51.9948C37.2933 51.6334 33.6267 51.4481 29.96 51.4868C28.2667 62.9134 30.0667 74.4734 29.4 85.9268C26.1333 85.8734 22.8667 85.8348 19.6133 85.7001C20.6133 83.1534 23.5333 83.3001 25.68 82.5268C24.96 72.4334 27.08 61.3934 22.1467 52.1401C17.72 52.1148 13.2933 52.1148 8.86667 52.1148C8.86667 62.2068 8.97333 72.3001 8.82666 82.3934C5.89333 82.3934 2.94667 82.3934 0 82.2601C0.733333 80.1268 3.06667 80.1001 4.76 79.3534C4.86667 69.1801 4.30667 59.0068 3.86667 48.8601C9.42667 48.6201 17.24 51.7268 20.9467 46.0201C28.3467 35.4868 33.3467 23.5401 39 12.0334C40.8267 8.58009 40.3067 4.26009 42.7333 1.08676Z" fill="black"/>
</svg>
