<svg width="42" height="117" viewBox="0 0 42 117" fill="none" xmlns="http://www.w3.org/2000/svg">
<path d="M23.9467 11.4399C23.8933 7.5746 22.56 3.4546 24.9333 -6.42776e-05C26.9867 0.599936 29.7867 0.574607 30.3613 3.21327C30.5213 5.83994 28.9867 8.03994 27.44 10.0146C30.7733 15.7066 34.0813 21.4399 36.8013 27.4679C37.6 31.1999 37.0667 35.1213 37.2533 38.9466C35.4 38.9199 33.5747 38.9199 31.748 38.9466C31.4267 42.6533 31.8933 46.3866 33.1067 49.9079C35.1347 55.4933 34.7067 61.5333 35.9467 67.2799C37.44 74.9199 38.9333 82.5599 40.8133 90.1346C41.7733 93.2666 40.6413 96.4933 40.16 99.6399C37.4267 101.653 34.188 102.575 30.8667 102.973C30.7733 107.387 30.7867 111.827 30.8133 116.267C28.32 116.213 25.84 116.173 23.3867 116.093C23.8013 114.027 25.5467 113.227 27.348 112.613C27.5333 109.547 27.6533 106.468 27.748 103.413C24.5333 103.307 21.3333 103.241 18.1467 103.213C17.8013 107.547 17.84 111.893 17.88 116.253C15.0933 116.213 12.32 116.188 9.54666 116.107C9.44 113.253 12.3733 113.413 14.1067 112.521C14.308 109.56 14.48 106.613 14.6667 103.681C12.28 102.747 9.93333 101.72 7.65333 100.613C11.56 87.4399 15.2133 74.1879 18.2133 60.7879C20.44 51.6933 19.7867 42.2533 19.32 32.9999C16.92 35.0399 15.1067 38.5066 11.4267 37.9199C7.748 34.0146 3.89333 30.2799 0 26.6133C0.546667 26.0533 1.628 24.9079 2.16 24.3333C5.53333 27.9466 8.93333 31.5213 12.4147 35.0533C17.48 27.8013 19.2947 18.9079 23.9467 11.4399Z" fill="black"/>
</svg>
