<svg width="38" height="117" viewBox="0 0 38 117" fill="none" xmlns="http://www.w3.org/2000/svg">
<path d="M10.691 1.89418C12.851 0.280849 16.171 -1.29248 18.0244 1.65418C20.6777 6.56085 15.8644 12.2408 17.9977 17.3208C20.451 22.9075 24.491 27.8142 25.8244 33.8675C27.3044 39.7742 28.411 45.8008 30.5977 51.5075C32.2777 55.7475 35.611 59.1742 37.0777 63.4942C36.771 63.9608 36.1444 64.9075 35.8244 65.3742C32.011 61.3342 29.691 56.2808 26.7844 51.6422C23.091 65.1475 28.531 78.6142 29.611 92.0808C25.5977 92.2808 21.131 91.2275 17.6244 93.7342C17.7977 101.309 17.6244 108.894 17.6377 116.468C16.9044 116.481 15.451 116.521 14.7177 116.534C14.5577 114.574 14.411 112.642 14.2244 110.721C10.8777 105.801 13.211 99.1742 12.371 93.5608C8.77103 93.7208 5.17103 93.8675 1.57103 94.0408C1.15769 84.7742 2.21103 75.4808 4.86436 66.6008C6.35769 62.0542 7.01103 57.2942 6.90436 52.5342C4.74436 55.2142 3.30436 58.3742 3.03769 61.8408C2.34436 64.3608 2.77103 67.8008 0.0243592 69.2142C-0.242307 59.2555 1.70436 49.4008 4.69103 39.9475C6.87769 32.9608 7.21103 24.8809 12.211 19.1475C13.0244 17.9342 14.4777 16.9342 14.5444 15.3742C13.931 12.8542 11.771 11.0275 11.1177 8.54751C10.8377 6.32085 10.811 4.10752 10.691 1.89418Z" fill="black"/>
</svg>
