<svg width="41" height="122" viewBox="0 0 41 122" fill="none" xmlns="http://www.w3.org/2000/svg">
<path d="M29.0933 2.80662C30.52 -0.806716 36.4533 -1.00539 37.9467 2.64661C38.8933 5.72661 36.8133 8.33995 35.56 10.9413C34.4267 13.3813 37.1733 15.0066 38.3733 16.7146C38.5467 32.8599 36.3067 49.2213 39.76 65.1679C40.88 71.8599 39.9067 78.6733 40.3467 85.4346C39.4533 85.4346 37.6667 85.4599 36.7733 85.4733C36.7867 97.3279 36.7867 109.193 36.7733 121.048C33.12 121.048 29.48 121.06 25.8533 121.113C25.8267 120.247 25.8 118.513 25.7867 117.647C28.1333 117.168 30.4933 116.715 32.8533 116.221C32.8267 105.953 32.84 95.6866 32.84 85.4199C29.44 85.4199 26.0533 85.4466 22.6667 85.5666C22.6 97.4066 22.6667 109.247 22.6267 121.101C19.0667 121.048 15.5067 121.033 11.9467 121.033C11.92 120.207 11.8667 118.567 11.84 117.74C14.1067 117.18 16.3867 116.633 18.6533 116.06C18.5867 105.873 18.6267 95.6733 18.64 85.4879C16.6267 85.4879 14.6133 85.4879 12.6 85.5013C15.1867 69.6199 16.7067 53.4733 20.88 37.9133C14.2267 40.58 7.30667 43.1933 0 42.5399C0 41.6999 0.0133336 40.0333 0.0133336 39.1933C7.62667 39.7146 14.68 36.3933 21.3733 33.2213C21.4933 31.9666 21.6533 30.7266 21.8667 29.5013C22.0667 28.4066 22.32 27.3399 22.6133 26.2866C25.6933 21.7933 29.48 17.8466 32.6267 13.4066C30.8267 10.1399 27.8933 6.80662 29.0933 2.80662Z" fill="black"/>
</svg>
