<svg width="34" height="118" viewBox="0 0 34 118" fill="none" xmlns="http://www.w3.org/2000/svg">
<path d="M11.0667 2.41568C12.56 -0.437657 17.2133 -0.930991 19.0133 1.84234C21.0133 4.52234 18.4133 7.52235 17.6 10.149C20.3733 16.4823 24.08 22.8157 23.5067 30.0157C23.16 45.6824 21.92 63.629 33.0933 76.2423C29.7067 78.1757 25.9067 79.0557 22.0933 79.6023C22.32 90.8823 22.64 102.149 22.7467 113.416C24.9467 113.642 27.16 113.869 29.36 114.109C29.32 114.922 29.2533 116.576 29.2133 117.402C25.3867 117.389 21.5467 117.389 17.72 117.389C17.84 104.962 18.08 92.5357 18.28 80.109C16.8667 80.3757 14.04 80.8957 12.6267 81.1623C13.0933 93.229 13.7867 105.296 13.8 117.376C9.74667 117.389 5.70667 117.376 1.66667 117.376C1.70667 115.936 1.74667 114.496 1.78667 113.069C4.17333 112.829 6.54667 112.589 8.93333 112.362C8.8 102.176 8.34667 91.989 8.30667 81.789C5.50667 80.3757 2.74667 78.8823 0 77.389C2.48 67.8557 4.78667 58.2823 7.29333 48.7623C9.08 42.2157 7.10667 35.309 8.58667 28.7223C9.90667 23.6823 12.9067 19.2023 13.8533 14.0557C14.7067 9.78901 9.98667 6.62901 11.0667 2.41568Z" fill="black"/>
</svg>
