<svg width="27" height="131" viewBox="0 0 27 131" fill="none" xmlns="http://www.w3.org/2000/svg">
<path d="M3.85333 48.8054C5.14667 51.1121 8.10667 50.3788 10.3067 50.7788C10.3067 46.2721 10.36 41.7654 10.2 37.2721C6.33333 39.5921 3.30667 44.1668 3.85333 48.8054ZM12.52 2.0321C15.1467 0.778767 18.0667 -0.779903 21.0533 0.445431C24.548 4.37876 21.04 9.05878 19.3733 12.8868C18.9733 21.8334 22.6267 30.3788 23.3467 39.2588C24 47.7921 24.3067 56.4188 23.44 64.9521C22.8933 69.9121 19.6267 74.2588 19.8813 79.3521C19.9733 95.4188 20.0133 111.472 19.9733 127.539C22.1467 127.899 24.3333 128.272 26.5333 128.632C26.4933 129.205 26.4133 130.339 26.3733 130.912C22.9867 130.899 19.6133 130.899 16.2533 130.912C16.0933 108.152 16.6133 84.5788 8.25333 63.0054C6.25333 56.9921 0.773333 52.4854 0 46.0454C2.28 35.4054 12.8933 28.7388 15.4133 18.1788C16.7067 12.5121 13.92 7.32543 12.52 2.0321Z" fill="black"/>
</svg>
