<svg width="34" height="121" viewBox="0 0 34 121" fill="none" xmlns="http://www.w3.org/2000/svg">
<path d="M11.1867 3.88515C13.04 1.71182 16.2533 -1.71486 19.1467 1.00514C22.4133 4.11181 20.0133 8.48514 18.0933 11.5785C22.5067 16.3918 25.4933 22.2851 28.2133 28.1785C31.0667 34.3385 29.7467 41.3118 29.7867 47.8571C28.56 48.1518 27.32 48.4585 26.0933 48.7785C24.4533 57.6451 30.9733 64.8851 33.3067 72.9651C32.6667 76.9251 27.24 77.1785 24.2267 78.7505C24.4667 92.7785 24.72 106.818 24.7333 120.872C24.12 120.872 22.9067 120.898 22.2933 120.898C21.4133 106.792 20.3733 92.6985 19.3867 78.6051C17.3467 78.5385 15.3067 78.4985 13.28 78.4585C12.88 92.6185 12.2267 106.778 11.6667 120.938C11.0533 120.925 9.84 120.885 9.22667 120.857C9 106.738 9.81333 92.5918 8.58667 78.5238C5.70667 78.3118 2.82667 78.0051 0 77.3785C2.72 69.2985 6.89333 61.4851 7.37333 52.8318C7.93333 50.2185 5.26667 48.9251 4 47.1251C0.453334 37.6851 1.92 26.6718 7.73333 18.4585C9.8 16.0451 12.28 14.0585 14.44 11.7651C12.2 9.67181 11.2667 6.88515 11.1867 3.88515Z" fill="black"/>
</svg>
