<svg width="92" height="128" viewBox="0 0 92 128" fill="none" xmlns="http://www.w3.org/2000/svg">
<path d="M30.8 3.96447C31.5333 -0.0488596 37.04 -1.44886 39.5333 1.80447C42.1067 5.6578 38.7467 10.2711 39.0533 14.3778C43.6267 24.3111 50.7867 32.6978 57.4 41.2845C60.4267 47.2445 61.9467 53.8711 64.0533 60.1911C63.4133 60.1378 62.1333 60.0178 61.4947 59.9511C58.4947 54.6978 57.28 48.5778 54.1613 43.3911C51.9067 41.0578 49.24 39.1911 46.7067 37.2045C48.9867 48.2178 51.6 59.1778 53.8813 70.2045C55.2533 77.8045 59.4947 84.5378 64 90.6711C72.68 98.1911 82.5067 104.311 91.8533 110.978C89.1867 114.044 86.4947 117.098 83.7733 120.111C83.1067 119.631 81.76 118.671 81.0933 118.191C82.4133 115.924 83.72 113.644 85.04 111.364C76.56 105.498 67.9067 99.8578 59.6267 93.7378C53.8933 87.7378 48.7467 81.1645 43.4533 74.7911C39.1467 82.0578 34.12 88.8978 30.0533 96.2845C26.12 105.858 22.5733 115.564 18.76 125.178C15.0667 125.924 11.36 126.658 7.64 127.258C7.29333 122.191 13.7067 123.658 16.1867 120.964C19.0933 112.071 20.3467 102.698 23.1733 93.7778C26.2933 86.3245 30.0933 79.1645 33.2267 71.7111C35.0933 67.6578 34.3467 63.0711 33.9067 58.7911C32.9067 51.8045 33.1333 44.7511 32.84 37.7245C29.6933 40.8178 27.1867 44.8711 22.9867 46.6445C15.96 49.7511 8.90667 52.7778 1.90667 55.9245C1.42667 55.2045 0.466667 53.7778 0 53.0578C7.68 49.0578 15.7467 45.7778 23.3067 41.5511C28.96 33.3378 33.3467 24.0978 36.1067 14.4978C37.2533 9.79114 32.0267 7.83114 30.8 3.96447Z" fill="black"/>
</svg>
