<svg width="67" height="126" viewBox="0 0 67 126" fill="none" xmlns="http://www.w3.org/2000/svg">
<path d="M25.2267 2.60708C26.52 -0.764917 31.76 -0.76492 33.6533 2.02175C34.9067 5.32708 31.8267 7.98041 31 11.0084C32.28 23.1404 38.92 35.7951 50.76 40.5151C53.1733 42.2604 57.9867 42.1684 58.0533 45.9937C49.1333 44.3137 41.7733 38.9017 35.0533 33.1404C35.6267 43.4737 36.2133 53.8204 36.9733 64.1404C39.7733 76.5937 46.4267 87.7951 49.92 100.062C51.6933 106.42 53.4933 112.767 55.3333 119.115C58.3467 118.622 61.3733 118.128 64.3867 117.622C64.8667 118.207 65.8133 119.395 66.2933 119.98C62.1067 122.274 58.08 125.635 53.0267 125.434C46.44 108.355 39.6667 91.3551 33.08 74.2884C32.4933 72.6071 31.5467 71.1004 30.04 70.1537C28.6933 78.1817 28.0933 86.8871 23.0533 93.6604C17.3333 101.515 11.68 109.42 6.37333 117.568C9.46667 119.314 13.8 119.94 15.3067 123.594C10.2 123.848 5.09333 123.754 0 123.754C0.6 121.42 0.999999 119.022 2.08 116.86C7.77333 106.087 14.12 95.6471 19.5867 84.7537C23.9467 66.7951 22.2267 48.0871 23.36 29.7951C21.4267 35.4204 19.92 41.2204 19.7733 47.2351C19.2933 50.0084 20.0267 53.4084 17.7067 55.5684C16.5733 40.1284 18.7867 24.1684 26.6667 10.6351C25.64 8.14041 23.6533 5.30175 25.2267 2.60708Z" fill="black"/>
</svg>
