<svg width="53" height="129" viewBox="0 0 53 129" fill="none" xmlns="http://www.w3.org/2000/svg">
<path d="M19.5333 1.90748C20.9333 -0.359188 24.84 -0.852517 26.1467 1.78748C26.9733 5.53415 25.48 9.14748 23.8667 12.4275C25.6133 16.7075 27.36 21.0008 28.2 25.5741C29.7067 34.0408 34.1067 41.5875 36.5733 49.7608C37.52 54.5741 37.92 59.4541 38.4533 64.3208C37.7867 64.3475 36.44 64.4008 35.7733 64.4408C35.4 55.9475 34.08 47.4541 30.08 39.8541C30.4667 50.7208 31.48 61.5741 32.1733 72.4275C33.7467 80.6141 35.4533 88.8141 37.68 96.8408C42.3467 104.974 47.7067 112.694 52.6 120.707C50.4667 123.307 48.3333 125.907 46.1867 128.494C42.4 125.814 47.04 122.921 48.4 120.307C43.8267 113.881 38.88 107.694 34.5733 101.094C31.3733 94.6408 28.9733 87.8275 26.08 81.2541C23.2667 87.3475 19.8133 93.1341 17.28 99.3475C14.9867 106.987 13.1467 114.747 11.1067 122.467C7.90667 121.787 4.72 121.081 1.53333 120.361C1.68 119.721 1.97333 118.441 2.12 117.801C3.88 118.147 5.64 118.481 7.42667 118.827C9.81333 108.174 11.9333 97.4541 15.3867 87.0675C17.1333 80.4541 20.08 73.9341 19.4667 66.9341C19.04 58.0141 19.3467 49.0541 18.4267 40.1741C17.3467 42.0008 16.32 43.8541 15.32 45.7208C10.3067 47.9075 5.49333 50.9075 0 51.6941C3.68 47.3475 9.70667 46.3741 14.04 42.9208C18.5067 34.2541 20.1467 24.5075 21.5333 14.9475C22.6133 10.3341 16.5067 6.26748 19.5333 1.90748Z" fill="black"/>
</svg>
