<svg width="55" height="117" viewBox="0 0 55 117" fill="none" xmlns="http://www.w3.org/2000/svg">
<path d="M21.1733 0.986233C23.9467 -0.280434 26.8933 -0.333762 29.7333 0.866238C29.7333 2.99957 29.72 5.1329 29.6533 7.27957C28.6533 8.99957 26.4133 10.5996 27.32 12.8396C31.2267 24.9329 34.9867 37.1062 38.3867 49.3596C41.3467 64.4396 45.7587 79.3062 47.092 94.6662C47.4533 97.0529 45.12 98.0529 43.5733 99.2796C44.7467 102.146 45.9333 105.026 47.1333 107.906C49.7333 107.986 52.3867 108.013 54.9333 108.84C52.6 111.453 49.3333 112.653 45.9333 112.986C44.08 108.773 42.2933 104.533 40.5467 100.293C30.2933 103.893 19.3467 100.746 8.88 100.066C7.26667 103.773 5.85333 107.598 5.10667 111.598C7.8 113.306 12.72 112.693 13.32 116.56C8.89333 116.48 4.49333 116.226 0.0800006 116.053C1.68 110.133 4.02667 104.48 6.04 98.7062C2.94667 96.9729 0.92 94.1462 0 90.7729C5.47867 85.4262 11.4933 80.1996 14.7587 73.1196C17.28 68.0129 20.0533 62.8529 20.9733 57.1729C21.1867 49.8396 21.4933 42.4662 20.84 35.1462C15.88 40.7862 17.3333 48.6129 17.2 55.4796C16.6133 55.5196 15.44 55.5862 14.8533 55.6262C14.6533 48.9462 14.08 42.1329 15.88 35.6262C17.36 29.9196 17.6667 23.8529 20.2667 18.4796C22.0133 15.8396 24.9467 13.8396 25.2267 10.4262C21.1453 8.98624 21.1733 4.55957 21.1733 0.986233Z" fill="black"/>
</svg>
