<?xml version="1.0" encoding="UTF-8"?>
<svg id="Layer_1" xmlns="http://www.w3.org/2000/svg" xmlns:xlink="http://www.w3.org/1999/xlink" version="1.1" viewBox="0 0 1200 1200">
  <!-- Generator: Adobe Illustrator 30.1.0, SVG Export Plug-In . SVG Version: 2.1.1 Build 136)  -->
  <defs>
    <style>
      .st0 {
        fill: #414042;
      }

      .st1 {
        fill: #6d6e71;
      }

      .st2 {
        fill: url(#linear-gradient);
      }

      .st3 {
        fill: #808285;
      }

      .st4 {
        fill: #a7a9ac;
      }
    </style>
    <linearGradient id="linear-gradient" x1="975.36" y1="225.84" x2="975.36" y2="199.1" gradientTransform="translate(0 408)" gradientUnits="userSpaceOnUse">
      <stop offset="0" stop-color="#fff" stop-opacity="0"/>
      <stop offset=".12" stop-color="#fbfbfb" stop-opacity=".12"/>
      <stop offset=".25" stop-color="#eee" stop-opacity=".25"/>
      <stop offset=".37" stop-color="#dadada" stop-opacity=".37"/>
      <stop offset=".5" stop-color="#bcbcbc" stop-opacity=".5"/>
      <stop offset=".63" stop-color="#979797" stop-opacity=".63"/>
      <stop offset=".76" stop-color="#696969" stop-opacity=".76"/>
      <stop offset=".89" stop-color="#343434" stop-opacity=".89"/>
      <stop offset="1" stop-color="#000"/>
    </linearGradient>
  </defs>
  <g>
    <g>
      <path class="st3" d="M106.67,665.74v85.72h237v-65.2h-7.77v-10.91h.88v-20.88c0-2.15-1.2-7.58-1.97-8.8-.76,1.21-1.93,6.5-1.96,8.71-1.11-1.38-2.79-3.04-5.09-4.36v-.73h-1.39v-2.4c0-2.15-1.2-7.58-1.97-8.8-.77,1.23-1.97,6.65-1.97,8.8v2.4h-5.95v-2.4c0-2.15-1.2-7.58-1.97-8.8-.77,1.23-1.97,6.65-1.97,8.8v2.4h-5.95v-2.4c0-2.15-1.2-7.58-1.97-8.8-.77,1.23-1.97,6.65-1.97,8.8v2.4h-5.95v-2.4c0-2.15-1.2-7.58-1.97-8.8-.77,1.23-1.97,6.65-1.97,8.8v2.4h-5.95v-2.4c0-2.15-1.2-7.58-1.97-8.8-.77,1.23-1.97,6.65-1.97,8.8v2.4h-5.95v-2.4c0-2.15-1.2-7.58-1.97-8.8-.77,1.23-1.97,6.65-1.97,8.8v2.4h-5.95v-2.4c0-2.15-1.2-7.58-1.97-8.8-.77,1.23-1.97,6.65-1.97,8.8v2.4h-23.18v-75.18h-2.03v-14.21c0-1.86-1.79-6.54-2.93-7.6-1.14,1.06-2.93,5.74-2.93,7.6v7h-1.56c-.2-2.13-.6-4.83-.88-5.6-.28.77-.69,3.47-.88,5.6h-2.71c-.2-2.13-.6-4.83-.88-5.6-.28.77-.69,3.47-.88,5.6h-2.71c-.2-2.13-.6-4.83-.88-5.6-.29.77-.69,3.47-.88,5.6h-2.71c-.2-2.13-.6-4.83-.88-5.6-.28.77-.69,3.47-.88,5.6h-1.78v-7c0-1.86-1.79-6.54-2.93-7.6-1.14,1.06-2.93,5.74-2.93,7.6v7h-1.06v7.21h-2.03v75.18h-59.12v-54.05c0-2.15-1.97-7.58-3.23-8.8-1.26,1.23-3.23,6.65-3.23,8.8v8.82h-1.66c-.18-2.53-.69-6.21-1.03-7.2-.35.99-.85,4.67-1.03,7.2h-2.87c-.18-2.53-.69-6.21-1.03-7.2-.35.99-.85,4.67-1.03,7.2h-2.87c-.18-2.53-.69-6.21-1.03-7.2-.34.99-.85,4.67-1.03,7.2h-2.87c-.18-2.53-.69-6.21-1.03-7.2-.35.99-.85,4.67-1.03,7.2h-1.9v-8.82c0-2.15-1.97-7.58-3.23-8.8-1.26,1.23-3.23,6.65-3.23,8.8v16.46h-1.17v18.9c-.95.28-1.65,1.15-1.65,2.2v16.49h0v11.23h.02c-1.62,1.18-2.69,3.07-2.69,5.23h.05ZM327.77,651.76c2.71,1.77,4.37,4.03,5.08,5.16v2.35h-5.08v-7.51h0Z"/>
      <polygon class="st4" points="795.22 653.4 806.1 653.4 806.1 648.64 824.45 648.64 824.45 653.4 827.71 653.4 827.71 662.66 831.14 662.66 833.95 662.66 833.95 651.14 839.03 651.14 839.03 639.62 845.35 639.62 845.35 629.99 848.24 629.99 848.24 620.35 868.81 620.35 868.81 629.99 871.7 629.99 871.7 639.62 878.02 639.62 878.02 651.14 883.1 651.14 883.1 662.66 885.91 662.66 885.91 751.46 831.14 751.46 781.06 751.46 781.06 662.66 795.22 662.66 795.22 653.4"/>
      <polygon class="st4" points="1005.83 575.42 1005.83 567.73 1013.37 567.73 1013.37 561.58 1051.62 561.58 1051.62 567.73 1059.16 567.73 1059.16 575.42 1062.44 575.42 1062.44 751.46 1002.55 751.46 1002.55 575.42 1005.83 575.42"/>
      <polygon class="st3" points="772.84 618.74 772.84 608.67 731.41 608.67 731.41 618.74 731.41 751.46 785.6 751.46 785.6 618.74 772.84 618.74"/>
      <polygon class="st4" points="610.78 627.18 610.78 616.62 606.16 616.62 606.16 611.65 600.66 611.65 600.66 584.53 591.8 584.53 591.8 601.34 587.37 601.34 587.37 611.65 581.11 611.65 581.11 616.62 576.48 616.62 576.48 627.18 570.13 627.18 570.13 751.46 617.14 751.46 617.14 627.18 610.78 627.18"/>
      <polygon class="st3" points="373.46 587.75 381.06 583.29 387.18 583.29 419.47 587.75 419.47 751.46 373.46 751.46 373.46 587.75"/>
      <polygon class="st4" points="550.28 629 550.28 618.06 519.6 618.06 519.6 629 511.54 629 511.54 658.18 498.65 658.18 498.65 751.46 511.54 751.46 524.42 751.46 558.34 751.46 558.34 629 550.28 629"/>
      <polygon class="st3" points="960.92 622.58 960.92 616.61 966.89 616.61 966.89 609.8 981.98 609.8 981.98 622.58 987.01 622.58 987.01 751.46 956.21 751.46 956.21 622.58 960.92 622.58"/>
      <path class="st3" d="M701.78,615.33h-19.95v-20.91c0-.26-.24-.48-.54-.48s-.54.22-.54.48v20.91h-2.13v-23.78c0-.26-.24-.48-.54-.48s-.54.22-.54.48v26h0v133.91h31.13v-128.46l-6.88-7.67h-.01Z"/>
      <polygon class="st3" points="482.55 661.08 482.55 654.43 482.55 646.34 541.77 646.34 541.77 654.43 547.57 654.43 547.57 646.34 560.92 646.34 560.92 654.43 563.19 654.43 563.19 661.08 571.51 661.08 571.51 674.92 579.24 674.92 579.24 751.46 571.51 751.46 485.49 751.46 477.76 751.46 477.76 661.08 482.55 661.08"/>
      <path d="M178.89,653.85v-4.68h-1.79v-1.82h1.79v-2.37h3.02v-3.57h-.99v-1.72h2.16v-2.03h2.1v2.03h2.16v1.72h-.99v3.57h11.27v-2.96h-1.73v-1.23h32.79v-5.4h-1.66v-1.73h2.83v-2.5h2.1v2.5h2.83v1.73h-1.66v5.4h11.05v-4.44h14.97v-2.98h-.99v-1.72h2.16v-2.03h2.1v2.03h2.16v1.72h-.99v2.98h2.03v4.44h1.98v-1.26c0-.71,5.18-4.14,12.57-4.14.93,0,1.04-1.47,2.12-1.95v-32.47c-.93-.03-6.23-.06-6.23,3.09,0,3.45-7.33,4.5-7.33,4.5l-1.29-6.22s6.16.06,6.16-3.33c0-3.14,7.56-3.42,8.69-3.45v-1.36c0-.41.33-.74.74-.74s.74.33.74.74v39.24c1.08.48,1.19,1.95,2.12,1.95,7.39,0,12.57,3.43,12.57,4.14v1.26h1.98v-4.44h2.03v-2.98h-.99v-1.72h2.16v-2.03h2.1v2.03h2.16v1.72h-.99v2.98h14.97v4.44h11.05v-5.4h-1.66v-1.73h2.83v-2.5h2.1v2.5h2.83v1.73h-1.66v5.4h32.79v1.23h-1.73v2.96h11.27v-3.57h-.99v-1.72h2.16v-2.03h2.1v2.03h2.16v1.72h-.99v3.57h3.02v2.37h1.79v1.82h-1.79v4.68h-1.36v6.9h3.14v1.97h-3.14v19.23h3.14v1.97h-1.99c.04.13.08.26.08.41v2.33c0,.77-.53,1.39-1.23,1.58v63.22h-205.58v-63.22c-.71-.2-1.23-.82-1.23-1.58v-2.33c0-.15.05-.28.08-.41h-1.99v-1.97h3.14v-19.23h-3.14v-1.97h3.14v-6.9h-1.36.04Z"/>
      <path d="M759.91,663.71v1.29h-4.99v-2.59h-17.01v-33.46c0-.41-.33-.74-.74-.74s-.74.33-.74.74v33.46h-17.01v2.59h-4.62v-1.29h-5.73v6.41h-14.36v-5.67h-9.74v2.83l-5.67-3.57v-3.45h-9.74v3.45l-4.44,3.57v-.37h-1.6v-6.66c-4.43-4.43-7.76-.86-7.76-.86h-10.04v-17.75s.31-1.6-1.08-1.6v-6.56l-6.19-7.3v-3.88s-3.6-9.34-10.91-12.02c0-2.03-.09-10.35-.09-10.35h1.2v-1.2h-3.33l-.68-2.77v-2.59h2.13v-1.39h-2.22v-2.03h1.76v-2.4h-1.85v-.86h-2.59v.86h-1.85v2.4h1.76v2.03h-2.22v1.39h2.13v2.59l-.68,2.77h-3.33v1.2h1.2s-.09,8.32-.09,10.35c-7.3,2.68-10.91,12.02-10.91,12.02v3.88l-6.19,7.3v6.56c-1.39,0-1.08,1.6-1.08,1.6v17.75h-10.04s-3.33-3.57-7.76.86v6.66h-1.6v.37l-4.44-3.57v-3.45h-9.74v3.45l-5.67,3.57v-2.83h-9.74v5.67h-14.36v-6.41h-5.73v1.29h-4.62v-2.59h-17.01v-33.46c0-.41-.33-.74-.74-.74s-.74.33-.74.74v33.46h-17.01v2.59h-4.99v-1.29h-5.73v6.41h3.14v2.34h-1.73v79h282.1v-79h-1.73v-2.34h3.14v-6.41h-5.73.03Z"/>
      <polygon class="st3" points="461.88 512.86 454.49 489.2 447.09 512.86 444.14 751.46 454.49 751.46 464.84 751.46 461.88 512.86"/>
      <path d="M1098.34,675.51c-.48.55-1.17,3.87-1.49,6.07l-6.21-9.48h-.06v-6.35c0-1.29-1.02-7.03-1.66-7.76-.65.74-1.66,6.47-1.66,7.76v6.35h-6.1v-6.35c0-1.29-1.02-7.03-1.66-7.76-.65.74-1.66,6.47-1.66,7.76v6.35h-6.1v-6.35c0-1.29-1.02-7.03-1.66-7.76-.65.74-1.66,6.47-1.66,7.76v6.35h-6.53v-6.35c0-1.29-1.02-7.03-1.66-7.76-.65.74-1.66,6.47-1.66,7.76v6.35h-6.1v-6.35c0-1.29-1.02-7.03-1.66-7.76-.65.74-1.66,6.47-1.66,7.76v6.35h-6.1v-6.35c0-1.29-1.02-7.03-1.66-7.76-.65.74-1.66,6.47-1.66,7.76v6.35h-6.1v-6.35c0-1.29-1.02-7.03-1.66-7.76-.65.74-1.66,6.47-1.66,7.76v6.35h-10.77v-11.42c0-2.33-1.83-12.64-2.99-13.97-1.16,1.33-2.99,11.64-2.99,13.97v8.52c-5.02-8.45-11.15-13.63-13.41-15.36v-22.74c0-2.33-1.83-12.64-2.99-13.97-1.16,1.33-2.99,11.64-2.99,13.97v13.5l-12.07-20.91-1.11-13.34-1.11,13.34-12.07,20.91v-13.5c0-2.33-1.83-12.64-2.99-13.97-1.16,1.33-2.99,11.64-2.99,13.97v22.74c-2.28,1.75-8.52,7.02-13.57,15.63v-8.78c0-2.33-1.83-12.64-2.99-13.97-1.16,1.33-2.99,11.64-2.99,13.97v11.42h-8.99v-6.35c0-1.29-1.02-7.03-1.66-7.76-.65.74-1.66,6.47-1.66,7.76v6.35h-6.1v-6.35c0-1.29-1.02-7.03-1.66-7.76-.65.74-1.66,6.47-1.66,7.76v6.35h-6.1v-6.35c0-1.29-1.02-7.03-1.66-7.76-.65.74-1.66,6.47-1.66,7.76v6.35h-6.1v-6.35c0-1.29-1.02-7.03-1.66-7.76-.65.74-1.66,6.47-1.66,7.76v20.64h-1.72v65.07h200.15v-68.18c0-1.29-1.02-7.02-1.66-7.76l-.14-.02ZM980.9,621.76h0l-.69,1.2.69-1.2ZM948.16,686.39v-6.54c3.49-9.78,9.71-16.63,13.57-20.19v9.44c-9,6.32-11.72,17.28-11.72,17.28h-1.85ZM1011.79,686.39s-2.72-10.96-11.72-17.28v-9.45c3.8,3.49,9.88,10.19,13.41,19.78v6.95h-1.69Z"/>
      <polygon points="829.67 695.75 829.67 683.92 780.1 683.92 780.1 702.16 762.19 702.16 762.19 751.46 780.1 751.46 785.22 751.46 819.76 751.46 829.67 751.46 839.59 751.46 839.59 695.75 829.67 695.75"/>
      <polygon points="414.06 680.9 414.06 698.46 385.82 698.46 385.82 751.46 414.06 751.46 440.72 751.46 440.72 680.9 414.06 680.9"/>
      <polygon points="126.83 688 126.83 700.64 135.77 700.64 135.77 682.81 159.43 682.81 159.43 702.04 181.12 702.04 181.12 719.05 187.65 719.05 187.65 751.46 163.99 751.46 163.99 751.33 159.43 751.33 157.46 751.33 140.13 751.33 140.13 751.46 126.83 751.46 119.98 751.46 106.67 751.46 106.67 688 126.83 688"/>
      <polygon points="842.22 688.58 842.22 683.96 847.22 683.96 847.22 688.58 864.87 688.58 864.87 683.96 897.34 683.96 897.34 688.58 905.04 688.58 905.04 751.46 839.59 751.46 839.59 688.58 842.22 688.58"/>
      <polygon points="452 683.62 452 681.15 458.32 678.67 473 678.67 473 683.62 484.45 683.62 484.45 751.46 452 751.46 440.72 751.46 440.72 689.43 452 683.62"/>
      <polygon class="st0" points="578.87 702.23 589.75 702.23 589.75 699.84 608.1 699.84 608.1 702.23 611.36 702.23 611.36 706.88 614.79 706.88 617.6 706.88 617.6 701.1 622.68 701.1 622.68 695.31 629.01 695.31 629.01 690.48 631.9 690.48 631.9 685.64 652.46 685.64 652.46 690.48 655.35 690.48 655.35 695.31 661.68 695.31 661.68 701.1 666.75 701.1 666.75 706.88 669.56 706.88 669.56 751.46 614.79 751.46 564.71 751.46 564.71 706.88 578.87 706.88 578.87 702.23"/>
      <polygon class="st0" points="537.68 719.34 537.68 715.54 523.56 715.54 523.56 719.34 519.2 719.34 519.2 724.36 514.63 724.36 514.63 689.81 455.67 689.81 455.67 724.36 453.45 724.36 453.45 712.59 436.02 712.59 436.02 724.36 431.11 724.36 431.11 751.46 455.67 751.46 514.63 751.46 543.97 751.46 543.97 724.36 543.97 719.34 537.68 719.34"/>
      <g>
        <path class="st1" d="M1099.98,737.73h0v-1.08h-.09c-.62-4.23-4.81-7.5-9.9-7.5-1.89,0-3.65.46-5.16,1.24-.47.25-1.1.15-1.44-.22-2.28-2.56-5.87-4.21-9.91-4.21-2.66,0-5.12.72-7.14,1.93-.71.43-1.72.22-2.02-.47-1.46-3.42-5.28-5.87-9.77-5.87s-8.18,2.36-9.69,5.69c-.17.37-.66.55-1.05.35-1.48-.76-3.21-1.2-5.06-1.2s-3.59.44-5.08,1.21c-.31.16-.68.15-.97-.02-1.29-.74-2.81-1.18-4.48-1.18-3.41,0-6.32,1.8-7.53,4.35h-.1c-.8,0-1.57.1-2.3.29-.51.13-1.04-.09-1.33-.47-2.12-2.77-5.76-4.59-9.9-4.59h-.17c-1.84-1.33-4.21-2.13-6.8-2.13s-5.04.83-6.9,2.2c-.46-.05-.93-.08-1.4-.08-3.22,0-6.12,1.11-8.26,2.9-.34.28-.85.32-1.24.09-1.64-.97-3.63-1.55-5.78-1.55s-4.26.61-5.93,1.64c-.3.18-.69.16-.95-.07-2.14-1.85-5.11-3.01-8.39-3.01h-.07c-1.46-1.89-3.95-3.14-6.78-3.14-2.37,0-4.5.88-5.99,2.27-.27.25-.76.15-.84-.19-.8-3.33-4.23-5.84-8.34-5.84-4.54,0-8.24,3.05-8.5,6.89h-.03c-1.02,0-2.01.11-2.95.32-.32.07-.66,0-.92-.17-1.34-.93-3.04-1.5-4.9-1.5s-3.46.53-4.78,1.4c-.41.27-1.01.12-1.17-.3-1.09-2.75-4.11-4.72-7.68-4.72s-6.75,2.11-7.75,4.99c-.13,0-.25-.02-.38-.02-3.58,0-6.78,1.37-8.95,3.52-.02.02-.04.02-.06.01-1.44-.65-3.07-1.01-4.8-1.01-.78,0-1.54.08-2.27.22-1.44-1.46-3.57-2.4-5.97-2.4s-4.31.85-5.74,2.18c-.21.2-.53.27-.83.19-1.02-.29-2.11-.45-3.24-.45-1.38,0-2.7.23-3.91.65.02-.19.07-.38.07-.58,0-3.86-3.64-6.99-8.13-6.99-3.79,0-6.95,2.24-7.84,5.26-.47.1-.55.12-1.02.22-2.5-2.42-6.14-3.95-10.2-3.95-3.6,0-6.86,1.2-9.3,3.15-.34.27-.81.38-1.26.28-.92-.2-1.89-.31-2.89-.31-3.66,0-6.94,1.43-9.11,3.68-.35.36-.97.44-1.43.18-1.36-.76-2.99-1.2-4.73-1.2-2.27,0-4.34.74-5.89,1.97-.5.39-1.24.44-1.79.1-1.62-.98-3.6-1.57-5.74-1.57s-4.18.6-5.82,1.61c-.45.28-1.1.19-1.41-.21-2.12-2.76-5.76-4.58-9.89-4.58-3.86,0-7.29,1.59-9.45,4.05-.24.28-.67.33-1.01.14-.82-.48-1.75-.85-2.74-1.06,0-.08.03-.15.03-.23,0-3.73-3.52-6.76-7.87-6.76-3.21,0-5.97,1.66-7.19,4.03,0,.02-.03.03-.05.02-.73-.12-1.48-.19-2.25-.19-2.66,0-5.1.76-7.08,2.02-.33.22-.78.22-1.11,0-1.97-1.27-4.42-2.02-7.08-2.02-1.95,0-3.79.41-5.41,1.13-.44.2-.96.06-1.19-.32-2-3.19-5.92-5.36-10.43-5.36-3.9,0-7.35,1.62-9.51,4.13-.33.39-.92.5-1.42.28-1.61-.71-3.43-1.11-5.36-1.11-3.99,0-7.52,1.71-9.66,4.31-.24.29-.67.38-1.03.21-1.67-.77-3.57-1.22-5.6-1.22-.81,0-1.6.07-2.36.2-.03,0-.05,0-.05-.03-1.23-4.49-5.92-7.83-11.52-7.83-6.54,0-11.84,4.56-11.84,10.17,0,.44.04.86.1,1.28-1.2.03-2.34.26-3.37.66-.29.11-.61-.04-.66-.31-.6-3.64-4.22-6.43-8.62-6.43-3.59,0-6.66,1.86-8,4.52-.15.29-.56.36-.81.13-2.16-1.95-5.21-3.17-8.58-3.17-1.93,0-3.74.4-5.35,1.1-.28.12-.6.07-.8-.13-2.17-2.12-5.35-3.47-8.9-3.47-4.41,0-8.26,2.08-10.3,5.16-.51-.06-1.02-.1-1.55-.1-1.89,0-3.67.39-5.26,1.06-.33.14-.71.08-.96-.16-2.17-2.09-5.32-3.4-8.83-3.4-.56,0-1.15.17-1.64.11-1.62-3.14-5.85-5.03-10.21-5.03-5.16,0-9.55,2.84-11.17,6.8-.11.27-.42.41-.74.34-.99-.23-2.03-.36-3.11-.36-2.77,0-5.32.82-7.33,2.19-.45.3-1.11.19-1.4-.23-2.04-3.06-5.87-5.12-10.27-5.12-4.07,0-7.66,1.77-9.79,4.46-.31.4-.91.5-1.38.25-1.82-.98-3.96-1.55-6.26-1.55-2.71,0-5.21.79-7.2,2.11-.33.22-.76.22-1.08,0-1.99-1.32-4.49-2.11-7.2-2.11-3.03,0-5.79.98-7.88,2.59-.51.39-1.28.39-1.79,0-2.09-1.61-4.85-2.59-7.88-2.59-.61,0-1.21.04-1.79.12-.57.08-1.16-.12-1.52-.51-2.17-2.39-5.54-3.93-9.34-3.93s-7.12,1.51-9.29,3.86c-.34.37-.86.56-1.4.51-.38-.03-.76-.05-1.15-.05-2.26,0-4.37.55-6.17,1.49-.21.11-.46.08-.63-.07-2.16-2.01-5.25-3.27-8.68-3.27-1.68,0-3.27.31-4.72.85-.25.09-.52,0-.62-.22-1.63-3.72-3.81-6.35-10.97-6.35s-10.21,5.61-10.67,5.77c-.46.17-5.21.4-6.82,1.19-.26.13-.56.07-.75-.12-1.95-1.97-4.76-3.29-7.93-3.53-.27-.02-.52-.13-.69-.31-2.17-2.28-5.47-3.75-9.17-3.75-5.14,0-9.51,2.82-11.14,6.76-.2.49-.8.76-1.39.66-.77-.14-1.56-.21-2.38-.21-1.98,0-3.84.42-5.47,1.16-.34.15-.74.07-.96-.19-2.15-2.53-5.63-4.17-9.55-4.17-4.4,0-8.22,2.06-10.27,5.12-.27.41-.84.55-1.32.33-1.62-.72-3.47-1.14-5.42-1.14-.95,0-1.87.1-2.76.29-.22.04-.42-.07-.46-.26-1-4.74-5.82-8.35-11.63-8.35-4.65,0-8.66,2.3-10.6,5.65-.42.72-1.38,1.03-2.24.74-1.33-.45-2.79-.7-4.31-.7-2.82,0-5.4.84-7.43,2.26-.41.28-1.01.07-1.08-.37-.42-2.72-2.41-9.42-11.71-9.42-12.19,0-11.64,10.06-12.33,10.17s-.75-1.19-.75-1.85c0-6.64-6.26-12.02-13.99-12.02-6.06,0-11.2,3.31-13.15,7.94-.19.45-.74.67-1.25.5-1.5-.47-3.11-.74-4.8-.74-2.76,0-5.32.69-7.48,1.88-.46.25-1.09.06-1.25-.39-1.68-4.68-6.75-8.08-12.74-8.08s-11.53,3.73-12.95,8.75c0,.03-.04.04-.07.03-2.12-.97-4.54-1.52-7.11-1.52-2.32,0-4.51.46-6.48,1.26-.02.01-.05,0-.06-.02-1.88-3.49-5.98-5.93-10.75-5.93-3.61,0-6.84,1.4-9.01,3.59-.35.35-.93.42-1.37.15-2.83-1.73-6.28-2.75-10.01-2.75-4.47,0-8.52,1.47-11.6,3.85-.02.01-.04.01-.06,0-3.4-2.39-7.9-3.85-12.85-3.85-7.81,0-14.51,3.62-17.5,8.81-.25.44-.97.5-1.31.1-2.36-2.7-5.9-4.59-9.97-5.09-9.22-1.13-17.32,5.45-17.32,13.46v12.9h999.98v-12.38h0l-.02.03Z"/>
        <path class="st0" d="M1099.98,739.07h0v-1.07h-.09c-.62-4.23-4.81-7.5-9.9-7.5-1.89,0-3.65.46-5.16,1.24-.47.25-1.1.15-1.44-.22-2.28-2.56-5.87-4.21-9.91-4.21-2.66,0-5.12.72-7.14,1.93-.71.43-1.72.22-2.02-.47-1.46-3.42-5.28-5.87-9.77-5.87s-8.18,2.36-9.69,5.69c-.17.37-.66.55-1.05.35-1.48-.76-3.21-1.2-5.06-1.2s-3.59.44-5.08,1.21c-.31.16-.68.15-.97-.02-1.29-.74-2.81-1.18-4.48-1.18-3.41,0-6.32,1.8-7.53,4.35h-.1c-.8,0-1.57.1-2.3.29-.51.13-1.04-.09-1.33-.47-2.12-2.77-5.76-4.59-9.9-4.59h-.17c-1.84-1.33-4.21-2.13-6.8-2.13s-5.04.83-6.9,2.2c-.46-.05-.93-.08-1.4-.08-3.22,0-6.12,1.11-8.26,2.9-.34.28-.85.32-1.24.09-1.64-.97-3.63-1.55-5.78-1.55s-4.26.61-5.93,1.64c-.3.18-.69.16-.95-.07-2.14-1.85-5.11-3.01-8.39-3.01h-.07c-1.46-1.89-3.95-3.14-6.78-3.14-2.37,0-4.5.88-5.99,2.27-.27.25-.76.15-.84-.19-.8-3.33-4.23-5.84-8.34-5.84-4.54,0-8.24,3.05-8.5,6.89h-.03c-1.02,0-2.01.11-2.95.32-.32.07-.66,0-.92-.17-1.34-.93-3.04-1.5-4.9-1.5s-3.46.53-4.78,1.4c-.41.27-1.01.12-1.17-.3-1.09-2.75-4.11-4.72-7.68-4.72s-6.75,2.11-7.75,4.99c-.13,0-.25-.02-.38-.02-3.58,0-6.78,1.37-8.95,3.52-.02.02-.04.02-.06.01-1.44-.65-3.07-1.01-4.8-1.01-.78,0-1.54.08-2.27.22-1.44-1.46-3.57-2.4-5.97-2.4s-4.31.85-5.74,2.18c-.21.2-.53.27-.83.19-1.02-.29-2.11-.45-3.24-.45-1.38,0-2.7.23-3.91.65.02-.2.07-.38.07-.58,0-3.86-3.64-6.99-8.13-6.99-3.79,0-6.95,2.24-7.84,5.26-.47.1-.55.12-1.02.22-2.5-2.42-6.14-3.95-10.2-3.95-3.6,0-6.86,1.2-9.3,3.15-.34.27-.81.38-1.26.28-.92-.2-1.89-.31-2.89-.31-3.66,0-6.94,1.43-9.11,3.68-.35.36-.97.44-1.43.18-1.36-.76-2.99-1.2-4.73-1.2-2.27,0-4.34.74-5.89,1.97-.5.39-1.24.44-1.79.1-1.62-.98-3.6-1.57-5.74-1.57s-4.18.6-5.82,1.61c-.45.28-1.1.19-1.41-.21-2.12-2.76-5.76-4.58-9.89-4.58-3.86,0-7.29,1.59-9.45,4.05-.24.28-.67.33-1.01.14-.82-.48-1.75-.85-2.74-1.06,0-.08.03-.15.03-.23,0-3.73-3.52-6.76-7.87-6.76-3.21,0-5.97,1.66-7.19,4.03,0,.02-.03.03-.05.02-.73-.12-1.48-.19-2.25-.19-2.66,0-5.1.76-7.08,2.02-.33.22-.78.22-1.11,0-1.97-1.27-4.42-2.02-7.08-2.02-1.95,0-3.79.41-5.41,1.13-.44.2-.96.06-1.19-.32-2-3.19-5.92-5.36-10.43-5.36-3.9,0-7.35,1.62-9.51,4.13-.33.39-.92.5-1.42.28-1.61-.71-3.43-1.11-5.36-1.11-3.99,0-7.52,1.71-9.66,4.31-.24.29-.67.38-1.03.21-1.67-.77-3.57-1.22-5.6-1.22-.81,0-1.6.07-2.36.2-.03,0-.05,0-.05-.03-1.23-4.49-5.92-7.83-11.52-7.83-6.54,0-11.84,4.56-11.84,10.17,0,.44.04.86.1,1.28-1.2.03-2.34.26-3.37.66-.29.11-.61-.04-.66-.31-.6-3.64-4.22-6.44-8.62-6.44-3.59,0-6.66,1.86-8,4.52-.15.29-.56.36-.81.13-2.16-1.95-5.21-3.17-8.58-3.17-1.93,0-3.74.4-5.35,1.1-.28.12-.6.07-.8-.13-2.17-2.12-5.35-3.47-8.9-3.47-4.41,0-8.26,2.08-10.3,5.16-.51-.06-1.02-.1-1.55-.1-1.89,0-3.67.39-5.26,1.06-.33.14-.71.08-.96-.16-2.17-2.09-5.32-3.4-8.83-3.4-.56,0-1.15.17-1.64.11-1.62-3.14-5.85-5.03-10.21-5.03-5.16,0-9.55,2.84-11.17,6.8-.11.27-.42.41-.74.34-.99-.23-2.03-.36-3.11-.36-2.77,0-5.32.82-7.33,2.19-.45.3-1.11.19-1.4-.23-2.04-3.06-5.87-5.12-10.27-5.12-4.07,0-7.66,1.77-9.79,4.46-.31.4-.91.5-1.38.25-1.82-.98-3.96-1.55-6.26-1.55-2.71,0-5.21.79-7.2,2.11-.33.22-.76.22-1.08,0-1.99-1.32-4.49-2.11-7.2-2.11-3.03,0-5.79.98-7.88,2.59-.51.39-1.28.39-1.79,0-2.09-1.61-4.85-2.59-7.88-2.59-.61,0-1.21.04-1.79.12-.57.08-1.16-.12-1.52-.51-2.17-2.39-5.54-3.93-9.34-3.93s-7.12,1.51-9.29,3.86c-.34.37-.86.56-1.4.51-.38-.03-.76-.05-1.15-.05-2.26,0-4.37.55-6.17,1.49-.21.11-.46.08-.63-.07-2.16-2.01-5.25-3.27-8.68-3.27-1.68,0-3.27.31-4.72.85-.25.09-.52,0-.62-.22-1.63-3.72-3.81-6.35-10.97-6.35s-10.21,5.61-10.67,5.77c-.46.17-5.21.4-6.82,1.19-.26.13-.56.07-.75-.12-1.95-1.97-4.76-3.29-7.93-3.53-.27-.02-.52-.13-.69-.31-2.17-2.28-5.47-3.75-9.17-3.75-5.14,0-9.51,2.82-11.14,6.76-.2.49-.8.76-1.39.66-.77-.14-1.56-.21-2.38-.21-1.98,0-3.84.42-5.47,1.16-.34.15-.74.07-.96-.19-2.15-2.53-5.63-4.17-9.55-4.17-4.4,0-8.22,2.06-10.27,5.12-.27.41-.84.55-1.32.33-1.62-.72-3.47-1.14-5.42-1.14-.95,0-1.87.1-2.76.29-.22.04-.42-.07-.46-.26-1-4.74-5.82-8.35-11.63-8.35-4.65,0-8.66,2.3-10.6,5.65-.42.72-1.38,1.03-2.24.74-1.33-.45-2.79-.7-4.31-.7-2.82,0-5.4.84-7.43,2.26-.41.28-1.01.07-1.08-.37-.42-2.72-2.41-9.42-11.71-9.42-12.19,0-11.64,10.06-12.33,10.17s-.75-1.19-.75-1.85c0-6.64-6.26-12.02-13.99-12.02-6.06,0-11.2,3.31-13.15,7.94-.19.45-.74.67-1.25.5-1.5-.47-3.11-.74-4.8-.74-2.76,0-5.32.69-7.48,1.88-.46.25-1.09.06-1.25-.39-1.68-4.68-6.75-8.08-12.74-8.08s-11.53,3.73-12.95,8.75c0,.03-.04.04-.07.03-2.12-.97-4.54-1.52-7.11-1.52-2.32,0-4.51.46-6.48,1.26-.02.01-.05,0-.06-.02-1.88-3.49-5.98-5.93-10.75-5.93-3.61,0-6.84,1.4-9.01,3.59-.35.35-.93.42-1.37.15-2.83-1.73-6.28-2.75-10.01-2.75-4.47,0-8.52,1.47-11.6,3.85-.02.01-.04.01-.06,0-3.4-2.39-7.9-3.85-12.85-3.85-7.81,0-14.51,3.62-17.5,8.81-.25.44-.97.5-1.31.1-2.36-2.7-5.9-4.59-9.97-5.09-9.22-1.13-17.32,5.45-17.32,13.46v12.9h999.98v-12.38h0s-.02.03-.02.03Z"/>
      </g>
    </g>
    <g>
      <rect class="st1" x="100" y="733.09" width="999.98" height="16.48"/>
      <rect x="100" y="735.26" width="999.98" height="16.48"/>
    </g>
  </g>
  <path class="st2" d="M956.21,627.88c-2.93-3.66-5.97-8.43-8.04-14.24v-6.54h1.85s1.56,6.25,6.19,12.03v8.74h0ZM1002.55,631.38c-.88.93-1.73,1.77-2.48,2.46v-9.45c.89-.63,1.71-1.31,2.48-2.01v9Z"/>
</svg>